<svg width="838" height="629" viewBox="0 0 838 629" fill="none" xmlns="http://www.w3.org/2000/svg">
<rect width="838" height="629" fill="white"/>
<path d="M109.27 196.304C110.854 197 112.798 197.552 114.646 197.552C118.582 197.552 121.462 195.056 121.462 191.696C121.462 185.888 114.214 186.824 114.214 184.4C114.214 183.656 114.91 183.032 115.87 183.032C117.67 183.032 119.47 184.496 120.214 185.168V180.68C118.582 180.056 116.854 179.672 115.126 179.672C111.718 179.672 108.91 181.544 108.91 185.096C108.91 191.168 115.99 189.92 115.99 192.728C115.99 193.472 115.294 194.024 114.382 194.024C111.718 194.024 109.582 192.008 108.502 190.976L109.27 196.304ZM123.189 187.544H124.101V192.752C124.101 195.392 124.989 197.552 127.869 197.552C128.709 197.552 129.717 197.384 130.341 197.048L131.661 192.896C131.229 193.232 130.629 193.64 130.101 193.64C129.021 193.64 128.997 192.896 128.997 191.744V187.544H130.989L131.493 184.256H128.997V181.328H127.677C126.309 183.104 124.773 184.832 123.189 185.672V187.544ZM138.531 186.824C139.467 186.824 140.067 187.352 140.067 187.88C140.067 190.136 132.987 188.096 132.987 193.304C132.987 195.752 135.027 197.552 137.523 197.552C138.627 197.552 139.875 197.096 140.763 196.568C141.147 197.024 141.819 197.528 142.803 197.528C143.403 197.528 144.075 197.312 144.555 196.904L145.827 193.952C144.795 193.952 144.483 193.4 144.483 191.912V189.224C144.483 186.128 143.667 183.728 138.987 183.728C137.595 183.728 136.179 183.992 134.859 184.448L133.971 188.672C134.955 188 136.899 186.824 138.531 186.824ZM138.315 194.504C137.667 194.504 137.139 194.216 137.139 193.4C137.139 192.2 138.843 191.768 140.019 191.456V192.512C140.019 193.856 139.323 194.504 138.315 194.504ZM146.674 187.544H147.586V192.752C147.586 195.392 148.474 197.552 151.354 197.552C152.194 197.552 153.202 197.384 153.826 197.048L155.146 192.896C154.714 193.232 154.114 193.64 153.586 193.64C152.506 193.64 152.482 192.896 152.482 191.744V187.544H154.474L154.978 184.256H152.482V181.328H151.162C149.794 183.104 148.258 184.832 146.674 185.672V187.544ZM157.024 188.72V193.136C157.024 195.752 156.832 196.184 156.304 197H162.688C162.136 196.088 161.944 195.536 161.944 193.064V184.256H156.208C156.832 185.264 157.024 185.744 157.024 188.72ZM159.28 183.368C160.552 183.368 161.872 182.648 161.872 181.52C161.872 180.392 160.528 179.672 159.28 179.672C158.008 179.672 156.712 180.416 156.712 181.52C156.712 182.648 158.008 183.368 159.28 183.368ZM175.299 192.512C174.915 192.824 173.403 193.952 171.867 193.952C169.995 193.952 169.155 192.488 169.155 190.64C169.155 188.912 170.043 187.328 171.723 187.328C173.307 187.328 174.723 188.624 175.011 188.912V184.664C173.715 184.064 172.155 183.728 170.763 183.728C166.731 183.728 164.091 186.752 164.091 190.808C164.091 195.152 167.043 197.552 170.691 197.552C172.035 197.552 173.451 197.216 174.651 196.664L175.299 192.512Z" fill="black"/>
<path d="M92.4295 433.048V440.536C92.4295 443.824 92.3575 444.112 91.5415 445H99.1015C104.358 445 107.766 441.808 107.766 436.408C107.766 430.192 103.59 428.224 99.1015 428.224H91.5415C92.4055 429.664 92.4295 429.832 92.4295 433.048ZM102.294 436.432C102.294 439.48 101.238 441.952 98.5015 441.904H97.6135V431.368H98.4775C101.358 431.416 102.294 433.72 102.294 436.432ZM111.194 436.432L114.746 444.976C114.554 445.672 113.738 447.304 112.394 447.304C111.53 447.304 110.402 446.44 110.138 446.128L109.754 449.752C110.378 450.04 111.41 450.256 112.274 450.256C115.97 450.256 117.362 446.92 118.418 444.376L122.042 435.88C122.81 434.056 123.29 433.048 123.866 432.256H118.874C119.138 432.664 119.378 433.216 119.378 433.744C119.378 434.248 119.114 434.968 118.898 435.568L117.578 438.856L116.162 435.496C115.97 435.016 115.61 434.248 115.61 433.768C115.61 433.216 115.946 432.688 116.258 432.256H108.962C109.73 433.264 110.09 433.768 111.194 436.432ZM130.959 445C130.431 443.92 130.383 443.608 130.383 441.496V437.536C130.383 436.48 130.575 435.448 131.487 435.448C132.591 435.448 132.591 436.072 132.591 437.536V441.496C132.591 443.632 132.543 444.04 132.039 445H138.063C137.487 444.04 137.367 443.464 137.367 441.568V436.36C137.367 433.744 136.263 431.728 133.455 431.728C131.871 431.728 130.767 432.424 130.383 432.664V432.256H124.959C125.439 433.384 125.631 433.432 125.631 436.36V441.568C125.631 443.512 125.535 444.04 124.911 445H130.959ZM145.008 434.824C145.944 434.824 146.544 435.352 146.544 435.88C146.544 438.136 139.464 436.096 139.464 441.304C139.464 443.752 141.504 445.552 144 445.552C145.104 445.552 146.352 445.096 147.24 444.568C147.624 445.024 148.296 445.528 149.28 445.528C149.88 445.528 150.552 445.312 151.032 444.904L152.304 441.952C151.272 441.952 150.96 441.4 150.96 439.912V437.224C150.96 434.128 150.144 431.728 145.464 431.728C144.072 431.728 142.656 431.992 141.336 432.448L140.448 436.672C141.432 436 143.376 434.824 145.008 434.824ZM144.792 442.504C144.144 442.504 143.616 442.216 143.616 441.4C143.616 440.2 145.32 439.768 146.496 439.456V440.512C146.496 441.856 145.8 442.504 144.792 442.504ZM159.174 445C158.742 444.04 158.574 443.968 158.574 441.28V437.344C158.574 436.216 158.814 435.52 159.726 435.52C160.758 435.52 160.71 436.528 160.71 437.344V441.28C160.71 443.872 160.59 444.184 160.134 445H165.87C165.582 444.328 165.438 443.896 165.438 441.28V437.344C165.438 436.456 165.582 435.52 166.542 435.52C167.454 435.52 167.574 436.384 167.574 437.344V441.28C167.574 444.04 167.334 444.4 166.926 445H172.974C172.542 444.136 172.326 443.656 172.326 441.28V437.344C172.326 434.392 171.726 431.728 168.15 431.728C165.942 431.728 164.838 432.904 164.478 433.264C163.998 432.784 163.23 431.728 161.382 431.728C159.846 431.728 158.838 432.496 158.43 432.76V432.256H153.15C153.63 433.192 153.822 433.384 153.822 435.904V441.28C153.822 444.208 153.678 444.136 152.958 445H159.174ZM174.985 436.72V441.136C174.985 443.752 174.793 444.184 174.265 445H180.649C180.097 444.088 179.905 443.536 179.905 441.064V432.256H174.169C174.793 433.264 174.985 433.744 174.985 436.72ZM177.241 431.368C178.513 431.368 179.833 430.648 179.833 429.52C179.833 428.392 178.489 427.672 177.241 427.672C175.969 427.672 174.673 428.416 174.673 429.52C174.673 430.648 175.969 431.368 177.241 431.368ZM193.26 440.512C192.876 440.824 191.364 441.952 189.828 441.952C187.956 441.952 187.116 440.488 187.116 438.64C187.116 436.912 188.004 435.328 189.684 435.328C191.268 435.328 192.684 436.624 192.972 436.912V432.664C191.676 432.064 190.116 431.728 188.724 431.728C184.692 431.728 182.052 434.752 182.052 438.808C182.052 443.152 185.004 445.552 188.652 445.552C189.996 445.552 191.412 445.216 192.612 444.664L193.26 440.512Z" fill="black"/>
<path d="M672.954 336.304C674.538 337 676.482 337.552 678.33 337.552C682.266 337.552 685.146 335.056 685.146 331.696C685.146 325.888 677.898 326.824 677.898 324.4C677.898 323.656 678.594 323.032 679.554 323.032C681.354 323.032 683.154 324.496 683.898 325.168V320.68C682.266 320.056 680.538 319.672 678.81 319.672C675.402 319.672 672.594 321.544 672.594 325.096C672.594 331.168 679.674 329.92 679.674 332.728C679.674 333.472 678.978 334.024 678.066 334.024C675.402 334.024 673.266 332.008 672.186 330.976L672.954 336.304ZM686.873 327.544H687.785V332.752C687.785 335.392 688.673 337.552 691.553 337.552C692.393 337.552 693.401 337.384 694.025 337.048L695.345 332.896C694.913 333.232 694.313 333.64 693.785 333.64C692.705 333.64 692.681 332.896 692.681 331.744V327.544H694.673L695.177 324.256H692.681V321.328H691.361C689.993 323.104 688.457 324.832 686.873 325.672V327.544ZM697.439 327.976V333.808C697.439 335.728 697.271 336.232 696.743 337H703.223C702.671 336.184 702.431 335.704 702.431 333.856V330.904C702.431 329.56 702.503 327.952 703.775 327.952C704.231 327.952 704.663 328.096 705.071 328.336L705.503 323.824C705.239 323.8 704.951 323.728 704.687 323.728C703.247 323.728 702.407 324.856 702.023 325.36V324.256H696.671C697.127 325 697.439 325.48 697.439 327.976ZM718.997 331.624C719.021 331.336 719.069 331.048 719.069 330.76C719.069 326.824 717.293 323.728 712.949 323.728C709.013 323.728 706.421 326.8 706.421 330.448C706.421 335.056 709.589 337.552 713.477 337.552C715.061 337.552 716.789 337.168 718.133 336.4L718.901 332.368C718.205 332.992 716.405 334.336 714.173 334.336C711.917 334.336 711.485 332.248 711.413 331.624H718.997ZM714.629 328.84H711.221C711.293 328.168 711.485 326.704 712.949 326.704C714.437 326.704 714.629 328.336 714.629 328.84ZM726.674 337C726.146 335.92 726.098 335.608 726.098 333.496V329.536C726.098 328.48 726.29 327.448 727.202 327.448C728.306 327.448 728.306 328.072 728.306 329.536V333.496C728.306 335.632 728.258 336.04 727.754 337H733.778C733.202 336.04 733.082 335.464 733.082 333.568V328.36C733.082 325.744 731.978 323.728 729.17 323.728C727.586 323.728 726.482 324.424 726.098 324.664V324.256H720.674C721.154 325.384 721.346 325.432 721.346 328.36V333.568C721.346 335.512 721.25 336.04 720.626 337H726.674ZM735.755 339.016C735.755 341.32 738.659 342.472 741.803 342.472C745.043 342.472 747.875 340.984 747.875 338.224C747.875 334.456 743.675 333.856 742.307 333.76C743.411 333.592 746.843 332.248 746.843 328.96C746.843 328.24 746.603 327.568 746.219 327.064L747.443 327.112L748.067 324.256H741.851C739.283 324.256 735.347 324.808 735.347 328.96C735.347 331.96 737.747 333.184 738.731 333.376C738.251 333.448 736.643 334.072 736.643 335.44C736.643 336.448 737.435 336.496 737.819 336.544C737.339 336.736 735.755 337.288 735.755 339.016ZM743.219 338.344C743.219 339.088 742.475 339.664 741.419 339.664C740.483 339.664 739.595 339.232 739.595 338.344C739.595 337.672 740.267 337.024 741.371 337.024C742.451 337.024 743.219 337.6 743.219 338.344ZM742.427 329.104C742.427 330.304 741.971 331.216 741.083 331.216C740.195 331.216 739.739 330.304 739.739 329.104C739.739 327.88 740.195 327.136 741.083 327.136C741.971 327.136 742.427 327.88 742.427 329.104ZM749.287 327.544H750.199V332.752C750.199 335.392 751.087 337.552 753.967 337.552C754.807 337.552 755.815 337.384 756.439 337.048L757.759 332.896C757.327 333.232 756.727 333.64 756.199 333.64C755.119 333.64 755.095 332.896 755.095 331.744V327.544H757.087L757.591 324.256H755.095V321.328H753.775C752.407 323.104 750.871 324.832 749.287 325.672V327.544ZM759.757 323.992V333.856C759.757 335.848 759.565 336.424 759.133 337H765.085C764.773 336.472 764.485 335.848 764.485 333.856V329.416C764.485 328.672 764.605 327.616 765.661 327.616C766.741 327.616 766.813 328.696 766.813 329.416V333.856C766.813 335.704 766.525 336.52 766.213 337H772.165C771.733 336.256 771.565 335.92 771.565 333.856V329.08C771.565 326.272 770.773 323.728 767.509 323.728C765.901 323.728 764.869 324.568 764.605 324.832V320.224H759.133C759.517 321.064 759.757 321.784 759.757 323.992Z" fill="black"/>
<path d="M589.27 518.944V528.28C589.27 530.776 589.078 531.112 588.526 532H595.15C594.598 530.992 594.406 530.632 594.406 528.28V525.088H598.63V528.28C598.63 530.68 598.438 531.088 597.886 532H604.534C603.934 530.968 603.766 530.536 603.766 528.28V518.944C603.766 516.592 603.934 516.256 604.534 515.224H597.886C598.558 516.328 598.63 516.568 598.63 518.944V521.704H594.406V518.944C594.406 516.16 594.598 516.208 595.15 515.224H588.526C589.078 516.232 589.27 516.184 589.27 518.944ZM606.883 523.72V528.136C606.883 530.752 606.691 531.184 606.163 532H612.547C611.995 531.088 611.803 530.536 611.803 528.064V519.256H606.067C606.691 520.264 606.883 520.744 606.883 523.72ZM609.139 518.368C610.411 518.368 611.731 517.648 611.731 516.52C611.731 515.392 610.387 514.672 609.139 514.672C607.867 514.672 606.571 515.416 606.571 516.52C606.571 517.648 607.867 518.368 609.139 518.368ZM614.454 534.016C614.454 536.32 617.358 537.472 620.502 537.472C623.742 537.472 626.574 535.984 626.574 533.224C626.574 529.456 622.374 528.856 621.006 528.76C622.11 528.592 625.542 527.248 625.542 523.96C625.542 523.24 625.302 522.568 624.918 522.064L626.142 522.112L626.766 519.256H620.55C617.982 519.256 614.046 519.808 614.046 523.96C614.046 526.96 616.446 528.184 617.43 528.376C616.95 528.448 615.342 529.072 615.342 530.44C615.342 531.448 616.134 531.496 616.518 531.544C616.038 531.736 614.454 532.288 614.454 534.016ZM621.918 533.344C621.918 534.088 621.174 534.664 620.118 534.664C619.182 534.664 618.294 534.232 618.294 533.344C618.294 532.672 618.966 532.024 620.07 532.024C621.15 532.024 621.918 532.6 621.918 533.344ZM621.126 524.104C621.126 525.304 620.67 526.216 619.782 526.216C618.894 526.216 618.438 525.304 618.438 524.104C618.438 522.88 618.894 522.136 619.782 522.136C620.67 522.136 621.126 522.88 621.126 524.104ZM628.706 518.992V528.856C628.706 530.848 628.514 531.424 628.082 532H634.034C633.722 531.472 633.434 530.848 633.434 528.856V524.416C633.434 523.672 633.554 522.616 634.61 522.616C635.69 522.616 635.762 523.696 635.762 524.416V528.856C635.762 530.704 635.474 531.52 635.162 532H641.114C640.682 531.256 640.514 530.92 640.514 528.856V524.08C640.514 521.272 639.722 518.728 636.458 518.728C634.85 518.728 633.818 519.568 633.554 519.832V515.224H628.082C628.466 516.064 628.706 516.784 628.706 518.992ZM651.228 524.584C651.228 529.768 653.124 532.768 653.724 533.944H657.252C656.82 532.624 655.452 529.048 655.452 524.584C655.452 520.096 656.82 516.424 657.252 515.224H653.724C653.1 516.352 651.228 519.472 651.228 524.584ZM659.173 519.016V527.896C659.173 530.704 659.077 530.944 658.597 531.952C658.981 531.904 659.389 531.856 659.773 531.856C661.069 531.856 663.253 532.552 665.293 532.552C669.037 532.552 672.157 530.224 672.157 525.448C672.157 521.464 669.781 518.728 666.589 518.728C665.701 518.728 664.813 518.968 664.093 519.472V515.224H658.453C658.957 516.232 659.173 516.472 659.173 519.016ZM665.437 522.064C666.613 522.064 666.997 523.528 666.997 525.376C666.997 527.392 666.541 529.408 665.245 529.408C664.165 529.408 663.949 528.088 663.949 526.864V524.488C663.949 523.312 664.261 522.064 665.437 522.064ZM679.188 521.824C680.124 521.824 680.724 522.352 680.724 522.88C680.724 525.136 673.644 523.096 673.644 528.304C673.644 530.752 675.684 532.552 678.18 532.552C679.284 532.552 680.532 532.096 681.42 531.568C681.804 532.024 682.476 532.528 683.46 532.528C684.06 532.528 684.732 532.312 685.212 531.904L686.484 528.952C685.452 528.952 685.14 528.4 685.14 526.912V524.224C685.14 521.128 684.324 518.728 679.644 518.728C678.252 518.728 676.836 518.992 675.516 519.448L674.628 523.672C675.612 523 677.556 521.824 679.188 521.824ZM678.972 529.504C678.324 529.504 677.796 529.216 677.796 528.4C677.796 527.2 679.5 526.768 680.676 526.456V527.512C680.676 528.856 679.98 529.504 678.972 529.504ZM695.514 519.112C694.89 518.896 693.978 518.728 693.186 518.728C689.898 518.728 687.378 521.896 687.378 525.736C687.378 529.792 689.73 532.552 692.394 532.552C694.554 532.552 695.49 530.992 695.826 530.56V532H701.13C700.482 531.16 700.386 530.776 700.386 527.488V515.224H694.698C695.322 516.232 695.514 516.712 695.514 519.112ZM695.634 525.376C695.634 527.2 695.49 528.736 694.002 528.736C692.922 528.736 692.49 527.536 692.49 525.904C692.49 523.912 692.874 522.088 694.194 522.088C695.514 522.088 695.634 523.504 695.634 525.376ZM702.305 515.224C702.737 516.52 704.129 520 704.129 524.584C704.129 529.12 702.737 532.648 702.305 533.944H705.857C706.457 532.792 708.353 529.84 708.353 524.584C708.353 519.328 706.457 516.376 705.857 515.224H702.305Z" fill="black"/>
<path d="M585.147 92.856V100.872C585.147 103.776 584.883 104.232 584.235 105H595.395L596.595 100.584C595.011 101.568 594.411 101.976 591.795 101.976H590.139V92.856C590.139 89.544 590.187 89.328 591.171 88.224H584.187C584.811 89.28 585.147 89.712 585.147 92.856ZM602.932 105.552C606.796 105.552 609.748 102.384 609.748 98.616C609.748 94.872 606.724 91.728 602.932 91.728C599.14 91.728 596.116 94.872 596.116 98.616C596.116 102.384 599.068 105.552 602.932 105.552ZM604.588 98.52C604.588 100.392 604.204 102.048 602.932 102.048C601.66 102.048 601.276 100.2 601.276 98.52C601.276 96.528 601.732 95.016 602.932 95.016C604.108 95.016 604.588 96.384 604.588 98.52ZM612.651 96.216L615.699 105H618.819L620.379 99.624L621.699 105H624.771L627.699 95.712C628.131 94.224 628.491 93.168 629.211 92.256H624.747C624.915 92.616 625.107 93.048 625.107 93.456C625.107 93.816 624.915 94.584 624.795 95.208L624.075 98.976L622.491 92.256H620.043L618.291 98.976L617.475 95.472C617.355 94.896 617.163 94.08 617.163 93.696C617.163 93.12 617.499 92.616 617.787 92.256H610.683C611.451 93.168 611.739 93.552 612.651 96.216ZM638.763 97.584C638.763 102.768 640.659 105.768 641.259 106.944H644.787C644.355 105.624 642.987 102.048 642.987 97.584C642.987 93.096 644.355 89.424 644.787 88.224H641.259C640.635 89.352 638.763 92.472 638.763 97.584ZM646.708 107.016C646.708 109.32 649.612 110.472 652.756 110.472C655.996 110.472 658.828 108.984 658.828 106.224C658.828 102.456 654.628 101.856 653.26 101.76C654.364 101.592 657.796 100.248 657.796 96.96C657.796 96.24 657.556 95.568 657.172 95.064L658.396 95.112L659.02 92.256H652.804C650.236 92.256 646.3 92.808 646.3 96.96C646.3 99.96 648.7 101.184 649.684 101.376C649.204 101.448 647.596 102.072 647.596 103.44C647.596 104.448 648.388 104.496 648.772 104.544C648.292 104.736 646.708 105.288 646.708 107.016ZM654.172 106.344C654.172 107.088 653.428 107.664 652.372 107.664C651.436 107.664 650.548 107.232 650.548 106.344C650.548 105.672 651.22 105.024 652.324 105.024C653.404 105.024 654.172 105.6 654.172 106.344ZM653.38 97.104C653.38 98.304 652.924 99.216 652.036 99.216C651.148 99.216 650.692 98.304 650.692 97.104C650.692 95.88 651.148 95.136 652.036 95.136C652.924 95.136 653.38 95.88 653.38 97.104ZM667.104 105.552C670.968 105.552 673.92 102.384 673.92 98.616C673.92 94.872 670.896 91.728 667.104 91.728C663.312 91.728 660.288 94.872 660.288 98.616C660.288 102.384 663.24 105.552 667.104 105.552ZM668.76 98.52C668.76 100.392 668.376 102.048 667.104 102.048C665.832 102.048 665.448 100.2 665.448 98.52C665.448 96.528 665.904 95.016 667.104 95.016C668.28 95.016 668.76 96.384 668.76 98.52ZM682.151 105.552C686.015 105.552 688.967 102.384 688.967 98.616C688.967 94.872 685.943 91.728 682.151 91.728C678.359 91.728 675.335 94.872 675.335 98.616C675.335 102.384 678.287 105.552 682.151 105.552ZM683.807 98.52C683.807 100.392 683.423 102.048 682.151 102.048C680.879 102.048 680.495 100.2 680.495 98.52C680.495 96.528 680.951 95.016 682.151 95.016C683.327 95.016 683.807 96.384 683.807 98.52ZM698.518 92.112C697.894 91.896 696.982 91.728 696.19 91.728C692.902 91.728 690.382 94.896 690.382 98.736C690.382 102.792 692.734 105.552 695.398 105.552C697.558 105.552 698.494 103.992 698.83 103.56V105H704.134C703.486 104.16 703.39 103.776 703.39 100.488V88.224H697.702C698.326 89.232 698.518 89.712 698.518 92.112ZM698.638 98.376C698.638 100.2 698.494 101.736 697.006 101.736C695.926 101.736 695.494 100.536 695.494 98.904C695.494 96.912 695.878 95.088 697.198 95.088C698.518 95.088 698.638 96.504 698.638 98.376ZM705.309 88.224C705.741 89.52 707.133 93 707.133 97.584C707.133 102.12 705.741 105.648 705.309 106.944H708.861C709.461 105.792 711.357 102.84 711.357 97.584C711.357 92.328 709.461 89.376 708.861 88.224H705.309Z" fill="black"/>
<rect x="290.5" y="80.5" width="248" height="37" fill="#54FF6F" stroke="black" stroke-width="5"/>
<path d="M395.188 104L392.453 97.9062L391.891 96.5938V100.828V104H390.141V93.7891H392.5L395.289 99.9219L395.781 101.117V96.6094V93.7891H397.531V104H395.188ZM404.266 104L404.219 102.961C404.052 103.138 403.878 103.302 403.695 103.453C403.513 103.599 403.312 103.727 403.094 103.836C402.875 103.945 402.635 104.029 402.375 104.086C402.12 104.148 401.839 104.18 401.531 104.18C401.125 104.18 400.768 104.12 400.461 104C400.154 103.88 399.896 103.714 399.688 103.5C399.479 103.286 399.32 103.029 399.211 102.727C399.107 102.424 399.055 102.091 399.055 101.727C399.055 101.352 399.133 101.005 399.289 100.688C399.451 100.37 399.693 100.096 400.016 99.8672C400.344 99.638 400.75 99.4583 401.234 99.3281C401.724 99.1979 402.297 99.1328 402.953 99.1328H403.992V98.6562C403.992 98.4531 403.964 98.2708 403.906 98.1094C403.849 97.9427 403.755 97.8021 403.625 97.6875C403.5 97.5729 403.336 97.4844 403.133 97.4219C402.93 97.3594 402.68 97.3281 402.383 97.3281C401.914 97.3281 401.451 97.3828 400.992 97.4922C400.539 97.5964 400.099 97.7448 399.672 97.9375V96.4141C400.052 96.263 400.49 96.138 400.984 96.0391C401.484 95.9401 402.003 95.8906 402.539 95.8906C403.128 95.8906 403.633 95.9479 404.055 96.0625C404.477 96.1719 404.823 96.3385 405.094 96.5625C405.37 96.7865 405.573 97.0677 405.703 97.4062C405.833 97.7396 405.898 98.1302 405.898 98.5781V104H404.266ZM403.992 100.492H402.828C402.505 100.492 402.232 100.523 402.008 100.586C401.784 100.648 401.602 100.734 401.461 100.844C401.32 100.953 401.216 101.081 401.148 101.227C401.086 101.367 401.055 101.518 401.055 101.68C401.055 102.003 401.159 102.25 401.367 102.422C401.576 102.589 401.859 102.672 402.219 102.672C402.484 102.672 402.76 102.576 403.047 102.383C403.333 102.19 403.648 101.914 403.992 101.555V100.492ZM413.688 104V98.5938C413.688 98.3958 413.682 98.224 413.672 98.0781C413.661 97.9271 413.641 97.8021 413.609 97.7031C413.578 97.6042 413.531 97.5312 413.469 97.4844C413.411 97.4323 413.331 97.4062 413.227 97.4062C413.065 97.4062 412.906 97.5156 412.75 97.7344C412.594 97.9531 412.417 98.3255 412.219 98.8516V104H410.586V98.5938C410.586 98.3958 410.581 98.224 410.57 98.0781C410.56 97.9271 410.539 97.8021 410.508 97.7031C410.477 97.6042 410.43 97.5312 410.367 97.4844C410.305 97.4323 410.221 97.4062 410.117 97.4062C409.982 97.4062 409.831 97.5156 409.664 97.7344C409.497 97.9531 409.312 98.3255 409.109 98.8516V104H407.461V96.0625H408.875L408.906 97.2188C409.021 96.9844 409.135 96.7839 409.25 96.6172C409.365 96.4505 409.487 96.3151 409.617 96.2109C409.747 96.1016 409.885 96.0234 410.031 95.9766C410.182 95.9297 410.352 95.9062 410.539 95.9062C410.982 95.9062 411.318 96.0234 411.547 96.2578C411.781 96.487 411.914 96.8073 411.945 97.2188C412.07 96.9844 412.193 96.7839 412.312 96.6172C412.438 96.4505 412.565 96.3151 412.695 96.2109C412.831 96.1016 412.974 96.0234 413.125 95.9766C413.281 95.9297 413.453 95.9062 413.641 95.9062C414.219 95.9062 414.646 96.1094 414.922 96.5156C415.198 96.9167 415.336 97.513 415.336 98.3047V104H413.688ZM423.797 99.4219C423.797 99.5521 423.792 99.7214 423.781 99.9297C423.776 100.138 423.766 100.333 423.75 100.516H418.531C418.531 100.865 418.583 101.172 418.688 101.438C418.797 101.703 418.948 101.927 419.141 102.109C419.339 102.286 419.573 102.422 419.844 102.516C420.12 102.609 420.424 102.656 420.758 102.656C421.143 102.656 421.555 102.628 421.992 102.57C422.435 102.508 422.893 102.409 423.367 102.273V103.789C423.164 103.846 422.943 103.898 422.703 103.945C422.464 103.992 422.219 104.034 421.969 104.07C421.719 104.107 421.466 104.133 421.211 104.148C420.956 104.169 420.708 104.18 420.469 104.18C419.865 104.18 419.323 104.094 418.844 103.922C418.365 103.75 417.958 103.497 417.625 103.164C417.292 102.826 417.036 102.409 416.859 101.914C416.682 101.419 416.594 100.846 416.594 100.195C416.594 99.5495 416.682 98.9635 416.859 98.4375C417.036 97.9062 417.286 97.4531 417.609 97.0781C417.932 96.6979 418.323 96.4062 418.781 96.2031C419.245 95.9948 419.76 95.8906 420.328 95.8906C420.891 95.8906 421.388 95.9792 421.82 96.1562C422.253 96.3281 422.615 96.5703 422.906 96.8828C423.198 97.1953 423.419 97.5677 423.57 98C423.721 98.4323 423.797 98.9062 423.797 99.4219ZM421.859 99.1484C421.865 98.8359 421.826 98.5651 421.742 98.3359C421.659 98.1016 421.544 97.9089 421.398 97.7578C421.258 97.6068 421.091 97.4948 420.898 97.4219C420.711 97.349 420.508 97.3125 420.289 97.3125C419.81 97.3125 419.417 97.474 419.109 97.7969C418.802 98.1146 418.62 98.5651 418.562 99.1484H421.859Z" fill="black"/>
<rect x="290.5" y="131.5" width="248" height="37" fill="#54FF6F" stroke="black" stroke-width="5"/>
<path d="M394.789 146.391V155H392.82V146.391H390.023V144.789H397.586V146.391H394.789ZM404.062 154.133C403.786 154.82 403.497 155.422 403.195 155.938C402.898 156.458 402.57 156.891 402.211 157.234C401.852 157.583 401.451 157.844 401.008 158.016C400.57 158.193 400.078 158.281 399.531 158.281C399.401 158.281 399.258 158.273 399.102 158.258C398.951 158.247 398.794 158.229 398.633 158.203V156.586C398.695 156.596 398.766 156.607 398.844 156.617C398.927 156.633 399.013 156.643 399.102 156.648C399.19 156.659 399.279 156.667 399.367 156.672C399.461 156.677 399.547 156.68 399.625 156.68C399.844 156.68 400.047 156.638 400.234 156.555C400.422 156.471 400.594 156.354 400.75 156.203C400.911 156.057 401.057 155.88 401.188 155.672C401.318 155.469 401.432 155.245 401.531 155L398.383 147.062H400.508L402.156 151.562L402.648 153.016L403.133 151.625L404.797 147.062H406.844L404.062 154.133ZM415.227 150.891C415.227 151.62 415.122 152.25 414.914 152.781C414.711 153.312 414.424 153.755 414.055 154.109C413.69 154.458 413.258 154.719 412.758 154.891C412.258 155.057 411.714 155.141 411.125 155.141C410.927 155.141 410.729 155.128 410.531 155.102C410.333 155.076 410.154 155.042 409.992 155V158.102H408.086V147.062H409.734L409.781 148.234C409.943 148.031 410.109 147.846 410.281 147.68C410.458 147.513 410.648 147.372 410.852 147.258C411.055 147.138 411.273 147.047 411.508 146.984C411.742 146.922 412.005 146.891 412.297 146.891C412.766 146.891 413.182 146.984 413.547 147.172C413.911 147.359 414.216 147.628 414.461 147.977C414.711 148.32 414.901 148.74 415.031 149.234C415.161 149.724 415.227 150.276 415.227 150.891ZM413.227 150.969C413.227 150.531 413.195 150.159 413.133 149.852C413.07 149.544 412.979 149.292 412.859 149.094C412.745 148.896 412.602 148.753 412.43 148.664C412.263 148.57 412.07 148.523 411.852 148.523C411.529 148.523 411.219 148.654 410.922 148.914C410.63 149.174 410.32 149.529 409.992 149.977V153.445C410.143 153.503 410.328 153.549 410.547 153.586C410.771 153.622 410.997 153.641 411.227 153.641C411.529 153.641 411.802 153.578 412.047 153.453C412.297 153.328 412.508 153.151 412.68 152.922C412.857 152.693 412.992 152.414 413.086 152.086C413.18 151.753 413.227 151.38 413.227 150.969ZM423.797 150.422C423.797 150.552 423.792 150.721 423.781 150.93C423.776 151.138 423.766 151.333 423.75 151.516H418.531C418.531 151.865 418.583 152.172 418.688 152.438C418.797 152.703 418.948 152.927 419.141 153.109C419.339 153.286 419.573 153.422 419.844 153.516C420.12 153.609 420.424 153.656 420.758 153.656C421.143 153.656 421.555 153.628 421.992 153.57C422.435 153.508 422.893 153.409 423.367 153.273V154.789C423.164 154.846 422.943 154.898 422.703 154.945C422.464 154.992 422.219 155.034 421.969 155.07C421.719 155.107 421.466 155.133 421.211 155.148C420.956 155.169 420.708 155.18 420.469 155.18C419.865 155.18 419.323 155.094 418.844 154.922C418.365 154.75 417.958 154.497 417.625 154.164C417.292 153.826 417.036 153.409 416.859 152.914C416.682 152.419 416.594 151.846 416.594 151.195C416.594 150.549 416.682 149.964 416.859 149.438C417.036 148.906 417.286 148.453 417.609 148.078C417.932 147.698 418.323 147.406 418.781 147.203C419.245 146.995 419.76 146.891 420.328 146.891C420.891 146.891 421.388 146.979 421.82 147.156C422.253 147.328 422.615 147.57 422.906 147.883C423.198 148.195 423.419 148.568 423.57 149C423.721 149.432 423.797 149.906 423.797 150.422ZM421.859 150.148C421.865 149.836 421.826 149.565 421.742 149.336C421.659 149.102 421.544 148.909 421.398 148.758C421.258 148.607 421.091 148.495 420.898 148.422C420.711 148.349 420.508 148.312 420.289 148.312C419.81 148.312 419.417 148.474 419.109 148.797C418.802 149.115 418.62 149.565 418.562 150.148H421.859Z" fill="black"/>
<rect x="290.5" y="182.5" width="248" height="37" fill="#76FF54" stroke="black" stroke-width="5"/>
<path d="M387.961 206L387.773 200.227L387.703 197.922L387.211 199.484L386.078 202.961H384.875L383.852 199.484L383.422 197.922L383.367 200.18L383.195 206H381.562L382.062 195.789H384.234L385.133 198.688L385.562 200.32L385.992 198.781L386.938 195.789H389.148L389.656 206H387.961ZM398.008 201.422C398.008 201.552 398.003 201.721 397.992 201.93C397.987 202.138 397.977 202.333 397.961 202.516H392.742C392.742 202.865 392.794 203.172 392.898 203.438C393.008 203.703 393.159 203.927 393.352 204.109C393.549 204.286 393.784 204.422 394.055 204.516C394.331 204.609 394.635 204.656 394.969 204.656C395.354 204.656 395.766 204.628 396.203 204.57C396.646 204.508 397.104 204.409 397.578 204.273V205.789C397.375 205.846 397.154 205.898 396.914 205.945C396.674 205.992 396.43 206.034 396.18 206.07C395.93 206.107 395.677 206.133 395.422 206.148C395.167 206.169 394.919 206.18 394.68 206.18C394.076 206.18 393.534 206.094 393.055 205.922C392.576 205.75 392.169 205.497 391.836 205.164C391.503 204.826 391.247 204.409 391.07 203.914C390.893 203.419 390.805 202.846 390.805 202.195C390.805 201.549 390.893 200.964 391.07 200.438C391.247 199.906 391.497 199.453 391.82 199.078C392.143 198.698 392.534 198.406 392.992 198.203C393.456 197.995 393.971 197.891 394.539 197.891C395.102 197.891 395.599 197.979 396.031 198.156C396.464 198.328 396.826 198.57 397.117 198.883C397.409 199.195 397.63 199.568 397.781 200C397.932 200.432 398.008 200.906 398.008 201.422ZM396.07 201.148C396.076 200.836 396.036 200.565 395.953 200.336C395.87 200.102 395.755 199.909 395.609 199.758C395.469 199.607 395.302 199.495 395.109 199.422C394.922 199.349 394.719 199.312 394.5 199.312C394.021 199.312 393.628 199.474 393.32 199.797C393.013 200.115 392.831 200.565 392.773 201.148H396.07ZM404.867 206L404.82 204.961C404.654 205.138 404.479 205.302 404.297 205.453C404.115 205.599 403.914 205.727 403.695 205.836C403.477 205.945 403.237 206.029 402.977 206.086C402.721 206.148 402.44 206.18 402.133 206.18C401.727 206.18 401.37 206.12 401.062 206C400.755 205.88 400.497 205.714 400.289 205.5C400.081 205.286 399.922 205.029 399.812 204.727C399.708 204.424 399.656 204.091 399.656 203.727C399.656 203.352 399.734 203.005 399.891 202.688C400.052 202.37 400.294 202.096 400.617 201.867C400.945 201.638 401.352 201.458 401.836 201.328C402.326 201.198 402.898 201.133 403.555 201.133H404.594V200.656C404.594 200.453 404.565 200.271 404.508 200.109C404.451 199.943 404.357 199.802 404.227 199.688C404.102 199.573 403.938 199.484 403.734 199.422C403.531 199.359 403.281 199.328 402.984 199.328C402.516 199.328 402.052 199.383 401.594 199.492C401.141 199.596 400.701 199.745 400.273 199.938V198.414C400.654 198.263 401.091 198.138 401.586 198.039C402.086 197.94 402.604 197.891 403.141 197.891C403.729 197.891 404.234 197.948 404.656 198.062C405.078 198.172 405.424 198.339 405.695 198.562C405.971 198.786 406.174 199.068 406.305 199.406C406.435 199.74 406.5 200.13 406.5 200.578V206H404.867ZM404.594 202.492H403.43C403.107 202.492 402.833 202.523 402.609 202.586C402.385 202.648 402.203 202.734 402.062 202.844C401.922 202.953 401.818 203.081 401.75 203.227C401.688 203.367 401.656 203.518 401.656 203.68C401.656 204.003 401.76 204.25 401.969 204.422C402.177 204.589 402.461 204.672 402.82 204.672C403.086 204.672 403.362 204.576 403.648 204.383C403.935 204.19 404.25 203.914 404.594 203.555V202.492ZM413.422 206V200.828C413.422 199.958 413.099 199.523 412.453 199.523C412.13 199.523 411.82 199.654 411.523 199.914C411.232 200.174 410.922 200.529 410.594 200.977V206H408.688V198.062H410.336L410.383 199.234C410.544 199.031 410.711 198.846 410.883 198.68C411.06 198.513 411.25 198.372 411.453 198.258C411.656 198.138 411.875 198.047 412.109 197.984C412.344 197.922 412.607 197.891 412.898 197.891C413.305 197.891 413.659 197.958 413.961 198.094C414.263 198.224 414.516 198.411 414.719 198.656C414.922 198.896 415.073 199.188 415.172 199.531C415.276 199.87 415.328 200.25 415.328 200.672V206H413.422ZM422.156 195.891C422.156 196.062 422.125 196.224 422.062 196.375C422 196.526 421.911 196.659 421.797 196.773C421.688 196.883 421.557 196.971 421.406 197.039C421.255 197.102 421.091 197.133 420.914 197.133C420.737 197.133 420.57 197.102 420.414 197.039C420.263 196.971 420.13 196.883 420.016 196.773C419.906 196.659 419.82 196.526 419.758 196.375C419.695 196.224 419.664 196.062 419.664 195.891C419.664 195.719 419.695 195.557 419.758 195.406C419.82 195.255 419.906 195.122 420.016 195.008C420.13 194.893 420.263 194.805 420.414 194.742C420.57 194.674 420.737 194.641 420.914 194.641C421.091 194.641 421.255 194.674 421.406 194.742C421.557 194.805 421.688 194.893 421.797 195.008C421.911 195.122 422 195.255 422.062 195.406C422.125 195.557 422.156 195.719 422.156 195.891ZM420.047 199.547H417.805V198.062H422V204.516H424.289V206H417.531V204.516H420.047V199.547ZM431.016 206V200.828C431.016 199.958 430.693 199.523 430.047 199.523C429.724 199.523 429.414 199.654 429.117 199.914C428.826 200.174 428.516 200.529 428.188 200.977V206H426.281V198.062H427.93L427.977 199.234C428.138 199.031 428.305 198.846 428.477 198.68C428.654 198.513 428.844 198.372 429.047 198.258C429.25 198.138 429.469 198.047 429.703 197.984C429.938 197.922 430.201 197.891 430.492 197.891C430.898 197.891 431.253 197.958 431.555 198.094C431.857 198.224 432.109 198.411 432.312 198.656C432.516 198.896 432.667 199.188 432.766 199.531C432.87 199.87 432.922 200.25 432.922 200.672V206H431.016ZM441.031 199.453C441.177 199.635 441.279 199.828 441.336 200.031C441.398 200.229 441.43 200.432 441.43 200.641C441.43 201.083 441.352 201.474 441.195 201.812C441.044 202.151 440.828 202.435 440.547 202.664C440.271 202.893 439.938 203.068 439.547 203.188C439.161 203.302 438.734 203.359 438.266 203.359C437.99 203.359 437.734 203.333 437.5 203.281C437.266 203.224 437.089 203.159 436.969 203.086C436.88 203.174 436.805 203.273 436.742 203.383C436.68 203.487 436.648 203.607 436.648 203.742C436.648 203.826 436.669 203.909 436.711 203.992C436.753 204.076 436.812 204.151 436.891 204.219C436.974 204.281 437.07 204.333 437.18 204.375C437.294 204.417 437.422 204.44 437.562 204.445L439.445 204.516C439.867 204.526 440.247 204.581 440.586 204.68C440.93 204.773 441.224 204.909 441.469 205.086C441.714 205.263 441.901 205.479 442.031 205.734C442.167 205.984 442.234 206.271 442.234 206.594C442.234 206.964 442.151 207.312 441.984 207.641C441.818 207.969 441.565 208.253 441.227 208.492C440.893 208.737 440.477 208.93 439.977 209.07C439.477 209.211 438.896 209.281 438.234 209.281C437.594 209.281 437.042 209.229 436.578 209.125C436.12 209.026 435.742 208.885 435.445 208.703C435.154 208.521 434.938 208.302 434.797 208.047C434.656 207.797 434.586 207.521 434.586 207.219C434.586 207.036 434.609 206.867 434.656 206.711C434.703 206.555 434.773 206.404 434.867 206.258C434.961 206.117 435.078 205.979 435.219 205.844C435.359 205.708 435.526 205.573 435.719 205.438C435.464 205.292 435.268 205.104 435.133 204.875C435.003 204.646 434.938 204.401 434.938 204.141C434.938 203.964 434.961 203.799 435.008 203.648C435.055 203.492 435.115 203.344 435.188 203.203C435.266 203.062 435.354 202.927 435.453 202.797C435.552 202.667 435.656 202.539 435.766 202.414C435.573 202.221 435.411 201.99 435.281 201.719C435.156 201.443 435.094 201.099 435.094 200.688C435.094 200.245 435.172 199.852 435.328 199.508C435.49 199.159 435.711 198.867 435.992 198.633C436.273 198.393 436.607 198.214 436.992 198.094C437.383 197.969 437.807 197.906 438.266 197.906C438.5 197.906 438.724 197.919 438.938 197.945C439.156 197.966 439.354 198.005 439.531 198.062H442.281V199.453H441.031ZM436.539 207.055C436.539 207.362 436.693 207.589 437 207.734C437.312 207.88 437.75 207.953 438.312 207.953C438.672 207.953 438.974 207.919 439.219 207.852C439.469 207.784 439.672 207.695 439.828 207.586C439.984 207.477 440.096 207.349 440.164 207.203C440.232 207.057 440.266 206.906 440.266 206.75C440.266 206.609 440.232 206.49 440.164 206.391C440.102 206.297 440.01 206.216 439.891 206.148C439.776 206.086 439.638 206.036 439.477 206C439.32 205.969 439.146 205.948 438.953 205.938L437.273 205.906C437.122 206.01 436.997 206.109 436.898 206.203C436.805 206.297 436.729 206.388 436.672 206.477C436.62 206.57 436.583 206.664 436.562 206.758C436.547 206.852 436.539 206.951 436.539 207.055ZM436.859 200.688C436.859 201.109 436.982 201.445 437.227 201.695C437.477 201.94 437.823 202.062 438.266 202.062C438.5 202.062 438.703 202.023 438.875 201.945C439.052 201.867 439.198 201.763 439.312 201.633C439.427 201.503 439.513 201.352 439.57 201.18C439.628 201.008 439.656 200.828 439.656 200.641C439.656 200.198 439.531 199.854 439.281 199.609C439.036 199.359 438.693 199.234 438.25 199.234C438.016 199.234 437.81 199.273 437.633 199.352C437.461 199.43 437.318 199.536 437.203 199.672C437.089 199.802 437.003 199.956 436.945 200.133C436.888 200.31 436.859 200.495 436.859 200.688Z" fill="black"/>
<rect x="290.5" y="233.5" width="248" height="37" fill="#C8FF54" stroke="black" stroke-width="5"/>
<path d="M384.453 250.039C384.453 250.57 384.365 251.062 384.188 251.516C384.01 251.964 383.747 252.352 383.398 252.68C383.049 253.008 382.615 253.263 382.094 253.445C381.573 253.628 380.969 253.719 380.281 253.719H379.305V257H377.367V246.789H380.359C381.021 246.789 381.604 246.862 382.109 247.008C382.62 247.148 383.047 247.357 383.391 247.633C383.74 247.909 384.003 248.25 384.18 248.656C384.362 249.057 384.453 249.518 384.453 250.039ZM382.438 250.172C382.438 249.901 382.393 249.656 382.305 249.438C382.221 249.214 382.091 249.023 381.914 248.867C381.742 248.711 381.523 248.591 381.258 248.508C380.992 248.424 380.677 248.383 380.312 248.383H379.305V252.125H380.375C380.708 252.125 381.003 252.081 381.258 251.992C381.513 251.898 381.727 251.766 381.898 251.594C382.076 251.422 382.208 251.216 382.297 250.977C382.391 250.737 382.438 250.469 382.438 250.172ZM393.344 252.969C393.344 253.594 393.255 254.167 393.078 254.688C392.901 255.203 392.646 255.646 392.312 256.016C391.979 256.385 391.57 256.672 391.086 256.875C390.602 257.078 390.049 257.18 389.43 257.18C388.841 257.18 388.315 257.094 387.852 256.922C387.388 256.75 386.995 256.495 386.672 256.156C386.349 255.812 386.102 255.385 385.93 254.875C385.758 254.359 385.672 253.76 385.672 253.078C385.672 252.448 385.76 251.875 385.938 251.359C386.12 250.844 386.378 250.404 386.711 250.039C387.049 249.674 387.461 249.393 387.945 249.195C388.43 248.992 388.977 248.891 389.586 248.891C390.18 248.891 390.708 248.979 391.172 249.156C391.635 249.328 392.029 249.586 392.352 249.93C392.674 250.273 392.919 250.701 393.086 251.211C393.258 251.716 393.344 252.302 393.344 252.969ZM391.359 253.016C391.359 252.193 391.203 251.576 390.891 251.164C390.583 250.747 390.128 250.539 389.523 250.539C389.19 250.539 388.906 250.604 388.672 250.734C388.438 250.865 388.245 251.044 388.094 251.273C387.943 251.497 387.831 251.76 387.758 252.062C387.69 252.365 387.656 252.688 387.656 253.031C387.656 253.859 387.823 254.484 388.156 254.906C388.49 255.323 388.945 255.531 389.523 255.531C389.841 255.531 390.117 255.469 390.352 255.344C390.586 255.214 390.776 255.036 390.922 254.812C391.068 254.583 391.177 254.315 391.25 254.008C391.323 253.701 391.359 253.37 391.359 253.016ZM401.539 254.664C401.539 255.117 401.438 255.505 401.234 255.828C401.036 256.146 400.771 256.406 400.438 256.609C400.109 256.807 399.734 256.951 399.312 257.039C398.896 257.133 398.469 257.18 398.031 257.18C397.448 257.18 396.922 257.151 396.453 257.094C395.984 257.042 395.542 256.964 395.125 256.859V255.141C395.615 255.344 396.102 255.492 396.586 255.586C397.076 255.674 397.536 255.719 397.969 255.719C398.469 255.719 398.841 255.641 399.086 255.484C399.336 255.323 399.461 255.115 399.461 254.859C399.461 254.74 399.435 254.63 399.383 254.531C399.331 254.432 399.232 254.339 399.086 254.25C398.945 254.156 398.745 254.062 398.484 253.969C398.224 253.87 397.883 253.76 397.461 253.641C397.07 253.531 396.727 253.409 396.43 253.273C396.138 253.133 395.896 252.969 395.703 252.781C395.51 252.594 395.365 252.378 395.266 252.133C395.172 251.883 395.125 251.591 395.125 251.258C395.125 250.935 395.198 250.63 395.344 250.344C395.49 250.057 395.706 249.807 395.992 249.594C396.284 249.375 396.646 249.203 397.078 249.078C397.51 248.953 398.016 248.891 398.594 248.891C399.094 248.891 399.536 248.917 399.922 248.969C400.307 249.021 400.648 249.078 400.945 249.141V250.695C400.492 250.549 400.065 250.448 399.664 250.391C399.268 250.328 398.875 250.297 398.484 250.297C398.094 250.297 397.779 250.367 397.539 250.508C397.305 250.648 397.188 250.844 397.188 251.094C397.188 251.214 397.211 251.32 397.258 251.414C397.305 251.508 397.396 251.599 397.531 251.688C397.672 251.776 397.865 251.87 398.109 251.969C398.359 252.062 398.688 252.167 399.094 252.281C399.552 252.411 399.938 252.552 400.25 252.703C400.562 252.849 400.812 253.016 401 253.203C401.193 253.391 401.331 253.604 401.414 253.844C401.497 254.083 401.539 254.357 401.539 254.664ZM408.461 246.891C408.461 247.062 408.43 247.224 408.367 247.375C408.305 247.526 408.216 247.659 408.102 247.773C407.992 247.883 407.862 247.971 407.711 248.039C407.56 248.102 407.396 248.133 407.219 248.133C407.042 248.133 406.875 248.102 406.719 248.039C406.568 247.971 406.435 247.883 406.32 247.773C406.211 247.659 406.125 247.526 406.062 247.375C406 247.224 405.969 247.062 405.969 246.891C405.969 246.719 406 246.557 406.062 246.406C406.125 246.255 406.211 246.122 406.32 246.008C406.435 245.893 406.568 245.805 406.719 245.742C406.875 245.674 407.042 245.641 407.219 245.641C407.396 245.641 407.56 245.674 407.711 245.742C407.862 245.805 407.992 245.893 408.102 246.008C408.216 246.122 408.305 246.255 408.367 246.406C408.43 246.557 408.461 246.719 408.461 246.891ZM406.352 250.547H404.109V249.062H408.305V255.516H410.594V257H403.836V255.516H406.352V250.547ZM419.133 256.922C418.789 257 418.443 257.062 418.094 257.109C417.745 257.156 417.414 257.18 417.102 257.18C416.581 257.18 416.13 257.125 415.75 257.016C415.375 256.906 415.062 256.74 414.812 256.516C414.568 256.292 414.385 256.008 414.266 255.664C414.151 255.315 414.094 254.901 414.094 254.422V250.547H411.961V249.062H414.094V247.031L416.047 246.523V249.062H419.133V250.547H416.047V254.281C416.047 254.734 416.151 255.078 416.359 255.312C416.568 255.542 416.917 255.656 417.406 255.656C417.719 255.656 418.023 255.63 418.32 255.578C418.617 255.526 418.888 255.466 419.133 255.398V256.922ZM426.055 246.891C426.055 247.062 426.023 247.224 425.961 247.375C425.898 247.526 425.81 247.659 425.695 247.773C425.586 247.883 425.456 247.971 425.305 248.039C425.154 248.102 424.99 248.133 424.812 248.133C424.635 248.133 424.469 248.102 424.312 248.039C424.161 247.971 424.029 247.883 423.914 247.773C423.805 247.659 423.719 247.526 423.656 247.375C423.594 247.224 423.562 247.062 423.562 246.891C423.562 246.719 423.594 246.557 423.656 246.406C423.719 246.255 423.805 246.122 423.914 246.008C424.029 245.893 424.161 245.805 424.312 245.742C424.469 245.674 424.635 245.641 424.812 245.641C424.99 245.641 425.154 245.674 425.305 245.742C425.456 245.805 425.586 245.893 425.695 246.008C425.81 246.122 425.898 246.255 425.961 246.406C426.023 246.557 426.055 246.719 426.055 246.891ZM423.945 250.547H421.703V249.062H425.898V255.516H428.188V257H421.43V255.516H423.945V250.547ZM437.328 252.969C437.328 253.594 437.24 254.167 437.062 254.688C436.885 255.203 436.63 255.646 436.297 256.016C435.964 256.385 435.555 256.672 435.07 256.875C434.586 257.078 434.034 257.18 433.414 257.18C432.826 257.18 432.299 257.094 431.836 256.922C431.372 256.75 430.979 256.495 430.656 256.156C430.333 255.812 430.086 255.385 429.914 254.875C429.742 254.359 429.656 253.76 429.656 253.078C429.656 252.448 429.745 251.875 429.922 251.359C430.104 250.844 430.362 250.404 430.695 250.039C431.034 249.674 431.445 249.393 431.93 249.195C432.414 248.992 432.961 248.891 433.57 248.891C434.164 248.891 434.693 248.979 435.156 249.156C435.62 249.328 436.013 249.586 436.336 249.93C436.659 250.273 436.904 250.701 437.07 251.211C437.242 251.716 437.328 252.302 437.328 252.969ZM435.344 253.016C435.344 252.193 435.188 251.576 434.875 251.164C434.568 250.747 434.112 250.539 433.508 250.539C433.174 250.539 432.891 250.604 432.656 250.734C432.422 250.865 432.229 251.044 432.078 251.273C431.927 251.497 431.815 251.76 431.742 252.062C431.674 252.365 431.641 252.688 431.641 253.031C431.641 253.859 431.807 254.484 432.141 254.906C432.474 255.323 432.93 255.531 433.508 255.531C433.826 255.531 434.102 255.469 434.336 255.344C434.57 255.214 434.76 255.036 434.906 254.812C435.052 254.583 435.161 254.315 435.234 254.008C435.307 253.701 435.344 253.37 435.344 253.016ZM443.711 257V251.828C443.711 250.958 443.388 250.523 442.742 250.523C442.419 250.523 442.109 250.654 441.812 250.914C441.521 251.174 441.211 251.529 440.883 251.977V257H438.977V249.062H440.625L440.672 250.234C440.833 250.031 441 249.846 441.172 249.68C441.349 249.513 441.539 249.372 441.742 249.258C441.945 249.138 442.164 249.047 442.398 248.984C442.633 248.922 442.896 248.891 443.188 248.891C443.594 248.891 443.948 248.958 444.25 249.094C444.552 249.224 444.805 249.411 445.008 249.656C445.211 249.896 445.362 250.188 445.461 250.531C445.565 250.87 445.617 251.25 445.617 251.672V257H443.711Z" fill="black"/>
<rect x="290.5" y="284.5" width="248" height="37" fill="#FFE454" stroke="black" stroke-width="5"/>
<path d="M378.055 308L377.492 305.984H373.93L373.352 308H371.445L374.469 297.789H377.156L380.18 308H378.055ZM375.734 299.664L374.391 304.414H377.062L375.734 299.664ZM383.859 298.445H381.617V296.961H385.812V306.516H388.102V308H381.344V306.516H383.859V298.445ZM396.047 301.453C396.193 301.635 396.294 301.828 396.352 302.031C396.414 302.229 396.445 302.432 396.445 302.641C396.445 303.083 396.367 303.474 396.211 303.812C396.06 304.151 395.844 304.435 395.562 304.664C395.286 304.893 394.953 305.068 394.562 305.188C394.177 305.302 393.75 305.359 393.281 305.359C393.005 305.359 392.75 305.333 392.516 305.281C392.281 305.224 392.104 305.159 391.984 305.086C391.896 305.174 391.82 305.273 391.758 305.383C391.695 305.487 391.664 305.607 391.664 305.742C391.664 305.826 391.685 305.909 391.727 305.992C391.768 306.076 391.828 306.151 391.906 306.219C391.99 306.281 392.086 306.333 392.195 306.375C392.31 306.417 392.438 306.44 392.578 306.445L394.461 306.516C394.883 306.526 395.263 306.581 395.602 306.68C395.945 306.773 396.24 306.909 396.484 307.086C396.729 307.263 396.917 307.479 397.047 307.734C397.182 307.984 397.25 308.271 397.25 308.594C397.25 308.964 397.167 309.312 397 309.641C396.833 309.969 396.581 310.253 396.242 310.492C395.909 310.737 395.492 310.93 394.992 311.07C394.492 311.211 393.911 311.281 393.25 311.281C392.609 311.281 392.057 311.229 391.594 311.125C391.135 311.026 390.758 310.885 390.461 310.703C390.169 310.521 389.953 310.302 389.812 310.047C389.672 309.797 389.602 309.521 389.602 309.219C389.602 309.036 389.625 308.867 389.672 308.711C389.719 308.555 389.789 308.404 389.883 308.258C389.977 308.117 390.094 307.979 390.234 307.844C390.375 307.708 390.542 307.573 390.734 307.438C390.479 307.292 390.284 307.104 390.148 306.875C390.018 306.646 389.953 306.401 389.953 306.141C389.953 305.964 389.977 305.799 390.023 305.648C390.07 305.492 390.13 305.344 390.203 305.203C390.281 305.062 390.37 304.927 390.469 304.797C390.568 304.667 390.672 304.539 390.781 304.414C390.589 304.221 390.427 303.99 390.297 303.719C390.172 303.443 390.109 303.099 390.109 302.688C390.109 302.245 390.188 301.852 390.344 301.508C390.505 301.159 390.727 300.867 391.008 300.633C391.289 300.393 391.622 300.214 392.008 300.094C392.398 299.969 392.823 299.906 393.281 299.906C393.516 299.906 393.74 299.919 393.953 299.945C394.172 299.966 394.37 300.005 394.547 300.062H397.297V301.453H396.047ZM391.555 309.055C391.555 309.362 391.708 309.589 392.016 309.734C392.328 309.88 392.766 309.953 393.328 309.953C393.688 309.953 393.99 309.919 394.234 309.852C394.484 309.784 394.688 309.695 394.844 309.586C395 309.477 395.112 309.349 395.18 309.203C395.247 309.057 395.281 308.906 395.281 308.75C395.281 308.609 395.247 308.49 395.18 308.391C395.117 308.297 395.026 308.216 394.906 308.148C394.792 308.086 394.654 308.036 394.492 308C394.336 307.969 394.161 307.948 393.969 307.938L392.289 307.906C392.138 308.01 392.013 308.109 391.914 308.203C391.82 308.297 391.745 308.388 391.688 308.477C391.635 308.57 391.599 308.664 391.578 308.758C391.562 308.852 391.555 308.951 391.555 309.055ZM391.875 302.688C391.875 303.109 391.997 303.445 392.242 303.695C392.492 303.94 392.839 304.062 393.281 304.062C393.516 304.062 393.719 304.023 393.891 303.945C394.068 303.867 394.214 303.763 394.328 303.633C394.443 303.503 394.529 303.352 394.586 303.18C394.643 303.008 394.672 302.828 394.672 302.641C394.672 302.198 394.547 301.854 394.297 301.609C394.052 301.359 393.708 301.234 393.266 301.234C393.031 301.234 392.826 301.273 392.648 301.352C392.477 301.43 392.333 301.536 392.219 301.672C392.104 301.802 392.018 301.956 391.961 302.133C391.904 302.31 391.875 302.495 391.875 302.688ZM406.039 303.969C406.039 304.594 405.951 305.167 405.773 305.688C405.596 306.203 405.341 306.646 405.008 307.016C404.674 307.385 404.266 307.672 403.781 307.875C403.297 308.078 402.745 308.18 402.125 308.18C401.536 308.18 401.01 308.094 400.547 307.922C400.083 307.75 399.69 307.495 399.367 307.156C399.044 306.812 398.797 306.385 398.625 305.875C398.453 305.359 398.367 304.76 398.367 304.078C398.367 303.448 398.456 302.875 398.633 302.359C398.815 301.844 399.073 301.404 399.406 301.039C399.745 300.674 400.156 300.393 400.641 300.195C401.125 299.992 401.672 299.891 402.281 299.891C402.875 299.891 403.404 299.979 403.867 300.156C404.331 300.328 404.724 300.586 405.047 300.93C405.37 301.273 405.615 301.701 405.781 302.211C405.953 302.716 406.039 303.302 406.039 303.969ZM404.055 304.016C404.055 303.193 403.898 302.576 403.586 302.164C403.279 301.747 402.823 301.539 402.219 301.539C401.885 301.539 401.602 301.604 401.367 301.734C401.133 301.865 400.94 302.044 400.789 302.273C400.638 302.497 400.526 302.76 400.453 303.062C400.385 303.365 400.352 303.688 400.352 304.031C400.352 304.859 400.518 305.484 400.852 305.906C401.185 306.323 401.641 306.531 402.219 306.531C402.536 306.531 402.812 306.469 403.047 306.344C403.281 306.214 403.471 306.036 403.617 305.812C403.763 305.583 403.872 305.315 403.945 305.008C404.018 304.701 404.055 304.37 404.055 304.016ZM412.797 303.148C412.807 302.852 412.792 302.599 412.75 302.391C412.714 302.182 412.651 302.01 412.562 301.875C412.479 301.74 412.375 301.641 412.25 301.578C412.125 301.516 411.982 301.484 411.82 301.484C411.539 301.484 411.247 301.602 410.945 301.836C410.648 302.065 410.32 302.445 409.961 302.977V308H408.008V300.062H409.734L409.805 301.219C409.935 301.016 410.081 300.833 410.242 300.672C410.409 300.51 410.591 300.372 410.789 300.258C410.992 300.138 411.216 300.047 411.461 299.984C411.706 299.922 411.974 299.891 412.266 299.891C412.667 299.891 413.021 299.961 413.328 300.102C413.641 300.237 413.901 300.44 414.109 300.711C414.323 300.982 414.479 301.323 414.578 301.734C414.682 302.141 414.727 302.612 414.711 303.148H412.797ZM421.156 297.891C421.156 298.062 421.125 298.224 421.062 298.375C421 298.526 420.911 298.659 420.797 298.773C420.688 298.883 420.557 298.971 420.406 299.039C420.255 299.102 420.091 299.133 419.914 299.133C419.737 299.133 419.57 299.102 419.414 299.039C419.263 298.971 419.13 298.883 419.016 298.773C418.906 298.659 418.82 298.526 418.758 298.375C418.695 298.224 418.664 298.062 418.664 297.891C418.664 297.719 418.695 297.557 418.758 297.406C418.82 297.255 418.906 297.122 419.016 297.008C419.13 296.893 419.263 296.805 419.414 296.742C419.57 296.674 419.737 296.641 419.914 296.641C420.091 296.641 420.255 296.674 420.406 296.742C420.557 296.805 420.688 296.893 420.797 297.008C420.911 297.122 421 297.255 421.062 297.406C421.125 297.557 421.156 297.719 421.156 297.891ZM419.047 301.547H416.805V300.062H421V306.516H423.289V308H416.531V306.516H419.047V301.547ZM431.828 307.922C431.484 308 431.138 308.062 430.789 308.109C430.44 308.156 430.109 308.18 429.797 308.18C429.276 308.18 428.826 308.125 428.445 308.016C428.07 307.906 427.758 307.74 427.508 307.516C427.263 307.292 427.081 307.008 426.961 306.664C426.846 306.315 426.789 305.901 426.789 305.422V301.547H424.656V300.062H426.789V298.031L428.742 297.523V300.062H431.828V301.547H428.742V305.281C428.742 305.734 428.846 306.078 429.055 306.312C429.263 306.542 429.612 306.656 430.102 306.656C430.414 306.656 430.719 306.63 431.016 306.578C431.312 306.526 431.583 306.466 431.828 306.398V307.922ZM438.812 308V302.828C438.812 301.958 438.49 301.523 437.844 301.523C437.521 301.523 437.211 301.654 436.914 301.914C436.622 302.174 436.312 302.529 435.984 302.977V308H434.078V296.961H435.984V299.68L435.891 301.117C436.052 300.924 436.216 300.753 436.383 300.602C436.549 300.445 436.729 300.315 436.922 300.211C437.115 300.107 437.323 300.029 437.547 299.977C437.771 299.919 438.018 299.891 438.289 299.891C438.695 299.891 439.049 299.958 439.352 300.094C439.654 300.224 439.906 300.411 440.109 300.656C440.312 300.896 440.464 301.188 440.562 301.531C440.667 301.87 440.719 302.25 440.719 302.672V308H438.812ZM448.477 308V302.594C448.477 302.396 448.471 302.224 448.461 302.078C448.451 301.927 448.43 301.802 448.398 301.703C448.367 301.604 448.32 301.531 448.258 301.484C448.201 301.432 448.12 301.406 448.016 301.406C447.854 301.406 447.695 301.516 447.539 301.734C447.383 301.953 447.206 302.326 447.008 302.852V308H445.375V302.594C445.375 302.396 445.37 302.224 445.359 302.078C445.349 301.927 445.328 301.802 445.297 301.703C445.266 301.604 445.219 301.531 445.156 301.484C445.094 301.432 445.01 301.406 444.906 301.406C444.771 301.406 444.62 301.516 444.453 301.734C444.286 301.953 444.102 302.326 443.898 302.852V308H442.25V300.062H443.664L443.695 301.219C443.81 300.984 443.924 300.784 444.039 300.617C444.154 300.451 444.276 300.315 444.406 300.211C444.536 300.102 444.674 300.023 444.82 299.977C444.971 299.93 445.141 299.906 445.328 299.906C445.771 299.906 446.107 300.023 446.336 300.258C446.57 300.487 446.703 300.807 446.734 301.219C446.859 300.984 446.982 300.784 447.102 300.617C447.227 300.451 447.354 300.315 447.484 300.211C447.62 300.102 447.763 300.023 447.914 299.977C448.07 299.93 448.242 299.906 448.43 299.906C449.008 299.906 449.435 300.109 449.711 300.516C449.987 300.917 450.125 301.513 450.125 302.305V308H448.477Z" fill="black"/>
<rect x="290.5" y="351.5" width="248" height="37" fill="#FFCE50" stroke="black" stroke-width="5"/>
<path d="M372.852 375V364.789H379V366.414H374.805V368.953H378.805V370.539H374.805V373.375H379V375H372.852ZM386.406 375L384.594 372.328L382.773 375H380.469L383.445 371L380.625 367.062H382.945L384.727 369.672L386.484 367.062H388.625L385.891 370.984L388.773 375H386.406ZM397.008 370.422C397.008 370.552 397.003 370.721 396.992 370.93C396.987 371.138 396.977 371.333 396.961 371.516H391.742C391.742 371.865 391.794 372.172 391.898 372.438C392.008 372.703 392.159 372.927 392.352 373.109C392.549 373.286 392.784 373.422 393.055 373.516C393.331 373.609 393.635 373.656 393.969 373.656C394.354 373.656 394.766 373.628 395.203 373.57C395.646 373.508 396.104 373.409 396.578 373.273V374.789C396.375 374.846 396.154 374.898 395.914 374.945C395.674 374.992 395.43 375.034 395.18 375.07C394.93 375.107 394.677 375.133 394.422 375.148C394.167 375.169 393.919 375.18 393.68 375.18C393.076 375.18 392.534 375.094 392.055 374.922C391.576 374.75 391.169 374.497 390.836 374.164C390.503 373.826 390.247 373.409 390.07 372.914C389.893 372.419 389.805 371.846 389.805 371.195C389.805 370.549 389.893 369.964 390.07 369.438C390.247 368.906 390.497 368.453 390.82 368.078C391.143 367.698 391.534 367.406 391.992 367.203C392.456 366.995 392.971 366.891 393.539 366.891C394.102 366.891 394.599 366.979 395.031 367.156C395.464 367.328 395.826 367.57 396.117 367.883C396.409 368.195 396.63 368.568 396.781 369C396.932 369.432 397.008 369.906 397.008 370.422ZM395.07 370.148C395.076 369.836 395.036 369.565 394.953 369.336C394.87 369.102 394.755 368.909 394.609 368.758C394.469 368.607 394.302 368.495 394.109 368.422C393.922 368.349 393.719 368.312 393.5 368.312C393.021 368.312 392.628 368.474 392.32 368.797C392.013 369.115 391.831 369.565 391.773 370.148H395.07ZM405.312 374.695C404.938 374.846 404.549 374.958 404.148 375.031C403.747 375.104 403.328 375.141 402.891 375.141C402.26 375.141 401.695 375.055 401.195 374.883C400.695 374.711 400.271 374.456 399.922 374.117C399.573 373.779 399.305 373.359 399.117 372.859C398.935 372.359 398.844 371.781 398.844 371.125C398.844 370.49 398.943 369.914 399.141 369.398C399.344 368.883 399.628 368.443 399.992 368.078C400.357 367.714 400.794 367.432 401.305 367.234C401.82 367.036 402.393 366.938 403.023 366.938C403.539 366.938 403.971 366.966 404.32 367.023C404.674 367.076 404.992 367.143 405.273 367.227V369.078C404.951 368.917 404.599 368.792 404.219 368.703C403.844 368.615 403.487 368.57 403.148 368.57C402.794 368.57 402.477 368.63 402.195 368.75C401.914 368.87 401.677 369.036 401.484 369.25C401.292 369.464 401.143 369.724 401.039 370.031C400.94 370.333 400.891 370.667 400.891 371.031C400.891 371.411 400.945 371.753 401.055 372.055C401.164 372.357 401.318 372.615 401.516 372.828C401.719 373.036 401.961 373.198 402.242 373.312C402.523 373.422 402.836 373.477 403.18 373.477C403.346 373.477 403.521 373.466 403.703 373.445C403.891 373.419 404.076 373.385 404.258 373.344C404.445 373.297 404.628 373.245 404.805 373.188C404.987 373.13 405.156 373.068 405.312 373V374.695ZM409.578 367.062V372.234C409.578 372.667 409.659 372.995 409.82 373.219C409.982 373.438 410.227 373.547 410.555 373.547C410.872 373.547 411.177 373.417 411.469 373.156C411.766 372.891 412.078 372.534 412.406 372.086V367.062H414.312V375H412.664L412.617 373.828C412.451 374.031 412.281 374.216 412.109 374.383C411.938 374.549 411.75 374.693 411.547 374.812C411.349 374.927 411.13 375.016 410.891 375.078C410.656 375.146 410.396 375.18 410.109 375.18C409.703 375.18 409.346 375.115 409.039 374.984C408.737 374.849 408.484 374.659 408.281 374.414C408.078 374.169 407.924 373.878 407.82 373.539C407.721 373.195 407.672 372.812 407.672 372.391V367.062H409.578ZM423.031 374.922C422.688 375 422.341 375.062 421.992 375.109C421.643 375.156 421.312 375.18 421 375.18C420.479 375.18 420.029 375.125 419.648 375.016C419.273 374.906 418.961 374.74 418.711 374.516C418.466 374.292 418.284 374.008 418.164 373.664C418.049 373.315 417.992 372.901 417.992 372.422V368.547H415.859V367.062H417.992V365.031L419.945 364.523V367.062H423.031V368.547H419.945V372.281C419.945 372.734 420.049 373.078 420.258 373.312C420.466 373.542 420.815 373.656 421.305 373.656C421.617 373.656 421.922 373.63 422.219 373.578C422.516 373.526 422.786 373.466 423.031 373.398V374.922ZM429.953 364.891C429.953 365.062 429.922 365.224 429.859 365.375C429.797 365.526 429.708 365.659 429.594 365.773C429.484 365.883 429.354 365.971 429.203 366.039C429.052 366.102 428.888 366.133 428.711 366.133C428.534 366.133 428.367 366.102 428.211 366.039C428.06 365.971 427.927 365.883 427.812 365.773C427.703 365.659 427.617 365.526 427.555 365.375C427.492 365.224 427.461 365.062 427.461 364.891C427.461 364.719 427.492 364.557 427.555 364.406C427.617 364.255 427.703 364.122 427.812 364.008C427.927 363.893 428.06 363.805 428.211 363.742C428.367 363.674 428.534 363.641 428.711 363.641C428.888 363.641 429.052 363.674 429.203 363.742C429.354 363.805 429.484 363.893 429.594 364.008C429.708 364.122 429.797 364.255 429.859 364.406C429.922 364.557 429.953 364.719 429.953 364.891ZM427.844 368.547H425.602V367.062H429.797V373.516H432.086V375H425.328V373.516H427.844V368.547ZM441.227 370.969C441.227 371.594 441.138 372.167 440.961 372.688C440.784 373.203 440.529 373.646 440.195 374.016C439.862 374.385 439.453 374.672 438.969 374.875C438.484 375.078 437.932 375.18 437.312 375.18C436.724 375.18 436.198 375.094 435.734 374.922C435.271 374.75 434.878 374.495 434.555 374.156C434.232 373.812 433.984 373.385 433.812 372.875C433.641 372.359 433.555 371.76 433.555 371.078C433.555 370.448 433.643 369.875 433.82 369.359C434.003 368.844 434.26 368.404 434.594 368.039C434.932 367.674 435.344 367.393 435.828 367.195C436.312 366.992 436.859 366.891 437.469 366.891C438.062 366.891 438.591 366.979 439.055 367.156C439.518 367.328 439.911 367.586 440.234 367.93C440.557 368.273 440.802 368.701 440.969 369.211C441.141 369.716 441.227 370.302 441.227 370.969ZM439.242 371.016C439.242 370.193 439.086 369.576 438.773 369.164C438.466 368.747 438.01 368.539 437.406 368.539C437.073 368.539 436.789 368.604 436.555 368.734C436.32 368.865 436.128 369.044 435.977 369.273C435.826 369.497 435.714 369.76 435.641 370.062C435.573 370.365 435.539 370.688 435.539 371.031C435.539 371.859 435.706 372.484 436.039 372.906C436.372 373.323 436.828 373.531 437.406 373.531C437.724 373.531 438 373.469 438.234 373.344C438.469 373.214 438.659 373.036 438.805 372.812C438.951 372.583 439.06 372.315 439.133 372.008C439.206 371.701 439.242 371.37 439.242 371.016ZM447.609 375V369.828C447.609 368.958 447.286 368.523 446.641 368.523C446.318 368.523 446.008 368.654 445.711 368.914C445.419 369.174 445.109 369.529 444.781 369.977V375H442.875V367.062H444.523L444.57 368.234C444.732 368.031 444.898 367.846 445.07 367.68C445.247 367.513 445.438 367.372 445.641 367.258C445.844 367.138 446.062 367.047 446.297 366.984C446.531 366.922 446.794 366.891 447.086 366.891C447.492 366.891 447.846 366.958 448.148 367.094C448.451 367.224 448.703 367.411 448.906 367.656C449.109 367.896 449.26 368.188 449.359 368.531C449.464 368.87 449.516 369.25 449.516 369.672V375H447.609Z" fill="black"/>
<rect x="290.5" y="405.5" width="248" height="37" fill="#FF9254" stroke="black" stroke-width="5"/>
<path d="M390.492 420.391V429H388.523V420.391H385.727V418.789H393.289V420.391H390.492ZM399.664 418.891C399.664 419.062 399.633 419.224 399.57 419.375C399.508 419.526 399.419 419.659 399.305 419.773C399.195 419.883 399.065 419.971 398.914 420.039C398.763 420.102 398.599 420.133 398.422 420.133C398.245 420.133 398.078 420.102 397.922 420.039C397.771 419.971 397.638 419.883 397.523 419.773C397.414 419.659 397.328 419.526 397.266 419.375C397.203 419.224 397.172 419.062 397.172 418.891C397.172 418.719 397.203 418.557 397.266 418.406C397.328 418.255 397.414 418.122 397.523 418.008C397.638 417.893 397.771 417.805 397.922 417.742C398.078 417.674 398.245 417.641 398.422 417.641C398.599 417.641 398.763 417.674 398.914 417.742C399.065 417.805 399.195 417.893 399.305 418.008C399.419 418.122 399.508 418.255 399.57 418.406C399.633 418.557 399.664 418.719 399.664 418.891ZM397.555 422.547H395.312V421.062H399.508V427.516H401.797V429H395.039V427.516H397.555V422.547ZM409.391 429V423.594C409.391 423.396 409.385 423.224 409.375 423.078C409.365 422.927 409.344 422.802 409.312 422.703C409.281 422.604 409.234 422.531 409.172 422.484C409.115 422.432 409.034 422.406 408.93 422.406C408.768 422.406 408.609 422.516 408.453 422.734C408.297 422.953 408.12 423.326 407.922 423.852V429H406.289V423.594C406.289 423.396 406.284 423.224 406.273 423.078C406.263 422.927 406.242 422.802 406.211 422.703C406.18 422.604 406.133 422.531 406.07 422.484C406.008 422.432 405.924 422.406 405.82 422.406C405.685 422.406 405.534 422.516 405.367 422.734C405.201 422.953 405.016 423.326 404.812 423.852V429H403.164V421.062H404.578L404.609 422.219C404.724 421.984 404.839 421.784 404.953 421.617C405.068 421.451 405.19 421.315 405.32 421.211C405.451 421.102 405.589 421.023 405.734 420.977C405.885 420.93 406.055 420.906 406.242 420.906C406.685 420.906 407.021 421.023 407.25 421.258C407.484 421.487 407.617 421.807 407.648 422.219C407.773 421.984 407.896 421.784 408.016 421.617C408.141 421.451 408.268 421.315 408.398 421.211C408.534 421.102 408.677 421.023 408.828 420.977C408.984 420.93 409.156 420.906 409.344 420.906C409.922 420.906 410.349 421.109 410.625 421.516C410.901 421.917 411.039 422.513 411.039 423.305V429H409.391ZM417.258 418.891C417.258 419.062 417.227 419.224 417.164 419.375C417.102 419.526 417.013 419.659 416.898 419.773C416.789 419.883 416.659 419.971 416.508 420.039C416.357 420.102 416.193 420.133 416.016 420.133C415.839 420.133 415.672 420.102 415.516 420.039C415.365 419.971 415.232 419.883 415.117 419.773C415.008 419.659 414.922 419.526 414.859 419.375C414.797 419.224 414.766 419.062 414.766 418.891C414.766 418.719 414.797 418.557 414.859 418.406C414.922 418.255 415.008 418.122 415.117 418.008C415.232 417.893 415.365 417.805 415.516 417.742C415.672 417.674 415.839 417.641 416.016 417.641C416.193 417.641 416.357 417.674 416.508 417.742C416.659 417.805 416.789 417.893 416.898 418.008C417.013 418.122 417.102 418.255 417.164 418.406C417.227 418.557 417.258 418.719 417.258 418.891ZM415.148 422.547H412.906V421.062H417.102V427.516H419.391V429H412.633V427.516H415.148V422.547ZM426.117 429V423.828C426.117 422.958 425.794 422.523 425.148 422.523C424.826 422.523 424.516 422.654 424.219 422.914C423.927 423.174 423.617 423.529 423.289 423.977V429H421.383V421.062H423.031L423.078 422.234C423.24 422.031 423.406 421.846 423.578 421.68C423.755 421.513 423.945 421.372 424.148 421.258C424.352 421.138 424.57 421.047 424.805 420.984C425.039 420.922 425.302 420.891 425.594 420.891C426 420.891 426.354 420.958 426.656 421.094C426.958 421.224 427.211 421.411 427.414 421.656C427.617 421.896 427.768 422.188 427.867 422.531C427.971 422.87 428.023 423.25 428.023 423.672V429H426.117ZM436.133 422.453C436.279 422.635 436.38 422.828 436.438 423.031C436.5 423.229 436.531 423.432 436.531 423.641C436.531 424.083 436.453 424.474 436.297 424.812C436.146 425.151 435.93 425.435 435.648 425.664C435.372 425.893 435.039 426.068 434.648 426.188C434.263 426.302 433.836 426.359 433.367 426.359C433.091 426.359 432.836 426.333 432.602 426.281C432.367 426.224 432.19 426.159 432.07 426.086C431.982 426.174 431.906 426.273 431.844 426.383C431.781 426.487 431.75 426.607 431.75 426.742C431.75 426.826 431.771 426.909 431.812 426.992C431.854 427.076 431.914 427.151 431.992 427.219C432.076 427.281 432.172 427.333 432.281 427.375C432.396 427.417 432.523 427.44 432.664 427.445L434.547 427.516C434.969 427.526 435.349 427.581 435.688 427.68C436.031 427.773 436.326 427.909 436.57 428.086C436.815 428.263 437.003 428.479 437.133 428.734C437.268 428.984 437.336 429.271 437.336 429.594C437.336 429.964 437.253 430.312 437.086 430.641C436.919 430.969 436.667 431.253 436.328 431.492C435.995 431.737 435.578 431.93 435.078 432.07C434.578 432.211 433.997 432.281 433.336 432.281C432.695 432.281 432.143 432.229 431.68 432.125C431.221 432.026 430.844 431.885 430.547 431.703C430.255 431.521 430.039 431.302 429.898 431.047C429.758 430.797 429.688 430.521 429.688 430.219C429.688 430.036 429.711 429.867 429.758 429.711C429.805 429.555 429.875 429.404 429.969 429.258C430.062 429.117 430.18 428.979 430.32 428.844C430.461 428.708 430.628 428.573 430.82 428.438C430.565 428.292 430.37 428.104 430.234 427.875C430.104 427.646 430.039 427.401 430.039 427.141C430.039 426.964 430.062 426.799 430.109 426.648C430.156 426.492 430.216 426.344 430.289 426.203C430.367 426.062 430.456 425.927 430.555 425.797C430.654 425.667 430.758 425.539 430.867 425.414C430.674 425.221 430.513 424.99 430.383 424.719C430.258 424.443 430.195 424.099 430.195 423.688C430.195 423.245 430.273 422.852 430.43 422.508C430.591 422.159 430.812 421.867 431.094 421.633C431.375 421.393 431.708 421.214 432.094 421.094C432.484 420.969 432.909 420.906 433.367 420.906C433.602 420.906 433.826 420.919 434.039 420.945C434.258 420.966 434.456 421.005 434.633 421.062H437.383V422.453H436.133ZM431.641 430.055C431.641 430.362 431.794 430.589 432.102 430.734C432.414 430.88 432.852 430.953 433.414 430.953C433.773 430.953 434.076 430.919 434.32 430.852C434.57 430.784 434.773 430.695 434.93 430.586C435.086 430.477 435.198 430.349 435.266 430.203C435.333 430.057 435.367 429.906 435.367 429.75C435.367 429.609 435.333 429.49 435.266 429.391C435.203 429.297 435.112 429.216 434.992 429.148C434.878 429.086 434.74 429.036 434.578 429C434.422 428.969 434.247 428.948 434.055 428.938L432.375 428.906C432.224 429.01 432.099 429.109 432 429.203C431.906 429.297 431.831 429.388 431.773 429.477C431.721 429.57 431.685 429.664 431.664 429.758C431.648 429.852 431.641 429.951 431.641 430.055ZM431.961 423.688C431.961 424.109 432.083 424.445 432.328 424.695C432.578 424.94 432.924 425.062 433.367 425.062C433.602 425.062 433.805 425.023 433.977 424.945C434.154 424.867 434.299 424.763 434.414 424.633C434.529 424.503 434.615 424.352 434.672 424.18C434.729 424.008 434.758 423.828 434.758 423.641C434.758 423.198 434.633 422.854 434.383 422.609C434.138 422.359 433.794 422.234 433.352 422.234C433.117 422.234 432.911 422.273 432.734 422.352C432.562 422.43 432.419 422.536 432.305 422.672C432.19 422.802 432.104 422.956 432.047 423.133C431.99 423.31 431.961 423.495 431.961 423.688Z" fill="black"/>
<rect x="290.5" y="459.5" width="248" height="37" fill="#FF6B18" stroke="black" stroke-width="5"/>
<path d="M394.672 483H392.125L389.008 472.789H391.188L392.914 478.938L393.469 480.953L394.047 478.82L395.758 472.789H397.805L394.672 483ZM403.867 483L403.82 481.961C403.654 482.138 403.479 482.302 403.297 482.453C403.115 482.599 402.914 482.727 402.695 482.836C402.477 482.945 402.237 483.029 401.977 483.086C401.721 483.148 401.44 483.18 401.133 483.18C400.727 483.18 400.37 483.12 400.062 483C399.755 482.88 399.497 482.714 399.289 482.5C399.081 482.286 398.922 482.029 398.812 481.727C398.708 481.424 398.656 481.091 398.656 480.727C398.656 480.352 398.734 480.005 398.891 479.688C399.052 479.37 399.294 479.096 399.617 478.867C399.945 478.638 400.352 478.458 400.836 478.328C401.326 478.198 401.898 478.133 402.555 478.133H403.594V477.656C403.594 477.453 403.565 477.271 403.508 477.109C403.451 476.943 403.357 476.802 403.227 476.688C403.102 476.573 402.938 476.484 402.734 476.422C402.531 476.359 402.281 476.328 401.984 476.328C401.516 476.328 401.052 476.383 400.594 476.492C400.141 476.596 399.701 476.745 399.273 476.938V475.414C399.654 475.263 400.091 475.138 400.586 475.039C401.086 474.94 401.604 474.891 402.141 474.891C402.729 474.891 403.234 474.948 403.656 475.062C404.078 475.172 404.424 475.339 404.695 475.562C404.971 475.786 405.174 476.068 405.305 476.406C405.435 476.74 405.5 477.13 405.5 477.578V483H403.867ZM403.594 479.492H402.43C402.107 479.492 401.833 479.523 401.609 479.586C401.385 479.648 401.203 479.734 401.062 479.844C400.922 479.953 400.818 480.081 400.75 480.227C400.688 480.367 400.656 480.518 400.656 480.68C400.656 481.003 400.76 481.25 400.969 481.422C401.177 481.589 401.461 481.672 401.82 481.672C402.086 481.672 402.362 481.576 402.648 481.383C402.935 481.19 403.25 480.914 403.594 480.555V479.492ZM410.25 473.445H408.008V471.961H412.203V481.516H414.492V483H407.734V481.516H410.25V473.445ZM418.375 475.062V480.234C418.375 480.667 418.456 480.995 418.617 481.219C418.779 481.438 419.023 481.547 419.352 481.547C419.669 481.547 419.974 481.417 420.266 481.156C420.562 480.891 420.875 480.534 421.203 480.086V475.062H423.109V483H421.461L421.414 481.828C421.247 482.031 421.078 482.216 420.906 482.383C420.734 482.549 420.547 482.693 420.344 482.812C420.146 482.927 419.927 483.016 419.688 483.078C419.453 483.146 419.193 483.18 418.906 483.18C418.5 483.18 418.143 483.115 417.836 482.984C417.534 482.849 417.281 482.659 417.078 482.414C416.875 482.169 416.721 481.878 416.617 481.539C416.518 481.195 416.469 480.812 416.469 480.391V475.062H418.375ZM432.195 478.422C432.195 478.552 432.19 478.721 432.18 478.93C432.174 479.138 432.164 479.333 432.148 479.516H426.93C426.93 479.865 426.982 480.172 427.086 480.438C427.195 480.703 427.346 480.927 427.539 481.109C427.737 481.286 427.971 481.422 428.242 481.516C428.518 481.609 428.823 481.656 429.156 481.656C429.542 481.656 429.953 481.628 430.391 481.57C430.833 481.508 431.292 481.409 431.766 481.273V482.789C431.562 482.846 431.341 482.898 431.102 482.945C430.862 482.992 430.617 483.034 430.367 483.07C430.117 483.107 429.865 483.133 429.609 483.148C429.354 483.169 429.107 483.18 428.867 483.18C428.263 483.18 427.721 483.094 427.242 482.922C426.763 482.75 426.357 482.497 426.023 482.164C425.69 481.826 425.435 481.409 425.258 480.914C425.081 480.419 424.992 479.846 424.992 479.195C424.992 478.549 425.081 477.964 425.258 477.438C425.435 476.906 425.685 476.453 426.008 476.078C426.331 475.698 426.721 475.406 427.18 475.203C427.643 474.995 428.159 474.891 428.727 474.891C429.289 474.891 429.786 474.979 430.219 475.156C430.651 475.328 431.013 475.57 431.305 475.883C431.596 476.195 431.818 476.568 431.969 477C432.12 477.432 432.195 477.906 432.195 478.422ZM430.258 478.148C430.263 477.836 430.224 477.565 430.141 477.336C430.057 477.102 429.943 476.909 429.797 476.758C429.656 476.607 429.49 476.495 429.297 476.422C429.109 476.349 428.906 476.312 428.688 476.312C428.208 476.312 427.815 476.474 427.508 476.797C427.201 477.115 427.018 477.565 426.961 478.148H430.258Z" fill="black"/>
<rect x="290.5" y="513.5" width="248" height="37" fill="#FF3225" stroke="black" stroke-width="5"/>
<path d="M377.484 528.359V526.789H383.938V528.359H381.688V535.414H383.938V537H377.484V535.414H379.734V528.359H377.484ZM391.188 537L391.141 535.828C390.974 536.031 390.802 536.216 390.625 536.383C390.448 536.549 390.258 536.693 390.055 536.812C389.852 536.927 389.633 537.016 389.398 537.078C389.169 537.146 388.914 537.18 388.633 537.18C388.164 537.18 387.747 537.086 387.383 536.898C387.018 536.711 386.711 536.445 386.461 536.102C386.216 535.753 386.029 535.331 385.898 534.836C385.768 534.341 385.703 533.789 385.703 533.18C385.703 532.451 385.805 531.82 386.008 531.289C386.216 530.753 386.503 530.31 386.867 529.961C387.232 529.607 387.664 529.346 388.164 529.18C388.664 529.008 389.208 528.922 389.797 528.922C389.995 528.922 390.193 528.935 390.391 528.961C390.594 528.987 390.773 529.021 390.93 529.062V525.961H392.836V537H391.188ZM387.703 533.094C387.703 533.531 387.732 533.906 387.789 534.219C387.852 534.526 387.94 534.779 388.055 534.977C388.174 535.174 388.32 535.32 388.492 535.414C388.664 535.503 388.859 535.547 389.078 535.547C389.401 535.547 389.708 535.417 390 535.156C390.292 534.896 390.602 534.539 390.93 534.086V530.617C390.779 530.56 390.591 530.513 390.367 530.477C390.148 530.44 389.927 530.422 389.703 530.422C389.396 530.422 389.12 530.484 388.875 530.609C388.63 530.734 388.419 530.911 388.242 531.141C388.07 531.37 387.938 531.651 387.844 531.984C387.75 532.312 387.703 532.682 387.703 533.094ZM401.906 532.422C401.906 532.552 401.901 532.721 401.891 532.93C401.885 533.138 401.875 533.333 401.859 533.516H396.641C396.641 533.865 396.693 534.172 396.797 534.438C396.906 534.703 397.057 534.927 397.25 535.109C397.448 535.286 397.682 535.422 397.953 535.516C398.229 535.609 398.534 535.656 398.867 535.656C399.253 535.656 399.664 535.628 400.102 535.57C400.544 535.508 401.003 535.409 401.477 535.273V536.789C401.273 536.846 401.052 536.898 400.812 536.945C400.573 536.992 400.328 537.034 400.078 537.07C399.828 537.107 399.576 537.133 399.32 537.148C399.065 537.169 398.818 537.18 398.578 537.18C397.974 537.18 397.432 537.094 396.953 536.922C396.474 536.75 396.068 536.497 395.734 536.164C395.401 535.826 395.146 535.409 394.969 534.914C394.792 534.419 394.703 533.846 394.703 533.195C394.703 532.549 394.792 531.964 394.969 531.438C395.146 530.906 395.396 530.453 395.719 530.078C396.042 529.698 396.432 529.406 396.891 529.203C397.354 528.995 397.87 528.891 398.438 528.891C399 528.891 399.497 528.979 399.93 529.156C400.362 529.328 400.724 529.57 401.016 529.883C401.307 530.195 401.529 530.568 401.68 531C401.831 531.432 401.906 531.906 401.906 532.422ZM399.969 532.148C399.974 531.836 399.935 531.565 399.852 531.336C399.768 531.102 399.654 530.909 399.508 530.758C399.367 530.607 399.201 530.495 399.008 530.422C398.82 530.349 398.617 530.312 398.398 530.312C397.919 530.312 397.526 530.474 397.219 530.797C396.911 531.115 396.729 531.565 396.672 532.148H399.969ZM408.523 537V531.828C408.523 530.958 408.201 530.523 407.555 530.523C407.232 530.523 406.922 530.654 406.625 530.914C406.333 531.174 406.023 531.529 405.695 531.977V537H403.789V529.062H405.438L405.484 530.234C405.646 530.031 405.812 529.846 405.984 529.68C406.161 529.513 406.352 529.372 406.555 529.258C406.758 529.138 406.977 529.047 407.211 528.984C407.445 528.922 407.708 528.891 408 528.891C408.406 528.891 408.76 528.958 409.062 529.094C409.365 529.224 409.617 529.411 409.82 529.656C410.023 529.896 410.174 530.188 410.273 530.531C410.378 530.87 410.43 531.25 410.43 531.672V537H408.523ZM419.133 536.922C418.789 537 418.443 537.062 418.094 537.109C417.745 537.156 417.414 537.18 417.102 537.18C416.581 537.18 416.13 537.125 415.75 537.016C415.375 536.906 415.062 536.74 414.812 536.516C414.568 536.292 414.385 536.008 414.266 535.664C414.151 535.315 414.094 534.901 414.094 534.422V530.547H411.961V529.062H414.094V527.031L416.047 526.523V529.062H419.133V530.547H416.047V534.281C416.047 534.734 416.151 535.078 416.359 535.312C416.568 535.542 416.917 535.656 417.406 535.656C417.719 535.656 418.023 535.63 418.32 535.578C418.617 535.526 418.888 535.466 419.133 535.398V536.922ZM426.055 526.891C426.055 527.062 426.023 527.224 425.961 527.375C425.898 527.526 425.81 527.659 425.695 527.773C425.586 527.883 425.456 527.971 425.305 528.039C425.154 528.102 424.99 528.133 424.812 528.133C424.635 528.133 424.469 528.102 424.312 528.039C424.161 527.971 424.029 527.883 423.914 527.773C423.805 527.659 423.719 527.526 423.656 527.375C423.594 527.224 423.562 527.062 423.562 526.891C423.562 526.719 423.594 526.557 423.656 526.406C423.719 526.255 423.805 526.122 423.914 526.008C424.029 525.893 424.161 525.805 424.312 525.742C424.469 525.674 424.635 525.641 424.812 525.641C424.99 525.641 425.154 525.674 425.305 525.742C425.456 525.805 425.586 525.893 425.695 526.008C425.81 526.122 425.898 526.255 425.961 526.406C426.023 526.557 426.055 526.719 426.055 526.891ZM423.945 530.547H421.703V529.062H425.898V535.516H428.188V537H421.43V535.516H423.945V530.547ZM436.727 536.922C436.383 537 436.036 537.062 435.688 537.109C435.339 537.156 435.008 537.18 434.695 537.18C434.174 537.18 433.724 537.125 433.344 537.016C432.969 536.906 432.656 536.74 432.406 536.516C432.161 536.292 431.979 536.008 431.859 535.664C431.745 535.315 431.688 534.901 431.688 534.422V530.547H429.555V529.062H431.688V527.031L433.641 526.523V529.062H436.727V530.547H433.641V534.281C433.641 534.734 433.745 535.078 433.953 535.312C434.161 535.542 434.51 535.656 435 535.656C435.312 535.656 435.617 535.63 435.914 535.578C436.211 535.526 436.482 535.466 436.727 535.398V536.922ZM443.75 536.133C443.474 536.82 443.185 537.422 442.883 537.938C442.586 538.458 442.258 538.891 441.898 539.234C441.539 539.583 441.138 539.844 440.695 540.016C440.258 540.193 439.766 540.281 439.219 540.281C439.089 540.281 438.945 540.273 438.789 540.258C438.638 540.247 438.482 540.229 438.32 540.203V538.586C438.383 538.596 438.453 538.607 438.531 538.617C438.615 538.633 438.701 538.643 438.789 538.648C438.878 538.659 438.966 538.667 439.055 538.672C439.148 538.677 439.234 538.68 439.312 538.68C439.531 538.68 439.734 538.638 439.922 538.555C440.109 538.471 440.281 538.354 440.438 538.203C440.599 538.057 440.745 537.88 440.875 537.672C441.005 537.469 441.12 537.245 441.219 537L438.07 529.062H440.195L441.844 533.562L442.336 535.016L442.82 533.625L444.484 529.062H446.531L443.75 536.133Z" fill="black"/>
<line x1="223.5" y1="71" x2="223.5" y2="324" stroke="black" stroke-width="3"/>
<line x1="222" y1="69.5" x2="254" y2="69.5" stroke="black" stroke-width="3"/>
<line x1="222" y1="322.5" x2="254" y2="322.5" stroke="black" stroke-width="3"/>
<line x1="223.5" y1="343" x2="223.5" y2="559" stroke="black" stroke-width="3"/>
<line x1="222" y1="341.5" x2="254" y2="341.5" stroke="black" stroke-width="3"/>
<line x1="222" y1="557.5" x2="254" y2="557.5" stroke="black" stroke-width="3"/>
<path d="M646.232 469.768C647.209 470.744 648.791 470.744 649.768 469.768L665.678 453.858C666.654 452.882 666.654 451.299 665.678 450.322C664.701 449.346 663.118 449.346 662.142 450.322L648 464.464L633.858 450.322C632.882 449.346 631.299 449.346 630.322 450.322C629.346 451.299 629.346 452.882 630.322 453.858L646.232 469.768ZM645.5 148L645.5 468L650.5 468L650.5 148L645.5 148Z" fill="black"/>
</svg>
