<svg xmlns="http://www.w3.org/2000/svg" viewBox="0 0 481.89 512.42" width="449.89" height="480.41" fill="transparent"><defs><style>@import url('https://fonts.googleapis.com/css2?family=Caveat+Brush&amp;family=Source+Code+Pro&amp;family=Source+Sans+Pro&amp;family=Crimson+Pro&amp;display=block');</style></defs><g transform="translate(17.24000000000001, 16) rotate(0, 58.62, 57.30)"><g id="5b9df205-1b39-4d84-136b-92feaab4503b_svg" class="tl-centered-g"><path d="M 0.27,43.52 Q 0.27,43.52 0.90,40.22 1.53,36.92 2.41,34.44 3.29,31.97 4.83,29.00 6.37,26.03 8.74,22.72 11.10,19.41 14.44,16.02 17.78,12.63 22.17,9.46 26.55,6.28 32.02,3.70 37.48,1.11 43.93,-0.44 50.37,-2.00 57.54,-2.11 64.70,-2.23 72.14,-0.56 79.59,1.10 86.73,4.76 93.88,8.42 100.03,14.07 106.19,19.71 110.66,27.07 115.13,34.44 117.31,42.99 119.48,51.55 118.98,60.54 118.47,69.53 115.19,78.09 111.90,86.65 106.07,93.88 100.25,101.11 92.44,106.27 84.63,111.43 75.65,114.01 66.66,116.59 57.41,116.41 48.17,116.24 39.56,113.44 30.95,110.64 23.73,105.66 16.51,100.68 11.20,94.14 5.89,87.60 2.73,80.22 -0.43,72.84 -1.48,65.30 -2.52,57.76 -1.70,50.65 -0.89,43.54 1.40,37.28 3.69,31.01 6.99,25.83 10.29,20.65 14.15,16.62 18.01,12.59 22.03,9.68 26.04,6.76 29.89,4.83 33.74,2.90 37.15,1.76 40.57,0.61 43.39,0.02 46.20,-0.56 49.68,-0.84 53.16,-1.13 53.16,-1.12 53.16,-1.12 53.16,-1.11 53.16,-1.11 49.79,-0.39 46.43,0.32 43.74,1.12 41.06,1.93 37.82,3.23 34.59,4.54 30.95,6.52 27.31,8.50 23.48,11.33 19.65,14.17 15.93,18.03 12.22,21.89 9.03,26.85 5.83,31.81 3.61,37.82 1.38,43.82 0.56,50.65 -0.25,57.47 0.71,64.71 1.68,71.96 4.68,79.07 7.69,86.18 12.76,92.50 17.84,98.81 24.76,103.65 31.69,108.48 39.97,111.21 48.25,113.95 57.16,114.17 66.06,114.38 74.73,111.94 83.40,109.50 90.95,104.57 98.49,99.64 104.13,92.71 109.78,85.79 112.98,77.58 116.18,69.37 116.72,60.72 117.25,52.08 115.19,43.84 113.14,35.60 108.87,28.50 104.60,21.39 98.70,15.93 92.80,10.47 85.93,6.92 79.06,3.37 71.89,1.74 64.72,0.11 57.82,0.21 50.92,0.30 44.71,1.80 38.50,3.29 33.24,5.78 27.99,8.26 23.78,11.33 19.57,14.39 16.38,17.66 13.19,20.94 10.87,24.08 8.54,27.23 6.90,30.02 5.27,32.81 4.12,35.09 2.98,37.36 1.63,40.45 Z" fill="#1c7ed6" stroke="#1c7ed6" stroke-width="2" pointer-events="none" stroke-linecap="round" stroke-linejoin="round"/></g><g font-size="28" font-family="Caveat Brush" text-align="left" fill="#1c7ed6" transform-origin="top left" transform="translate(16.620000000000005, 38.30)"><text y="18.2">baseline</text></g></g><g transform="translate(348.65, 171.05) rotate(0, 58.62, 57.30)"><g id="77acbb15-422f-499f-1a8e-699ba37d0b1d_svg" class="tl-centered-g"><path d="M 95.83,14.58 Q 95.83,14.58 98.59,16.51 101.35,18.44 103.20,20.28 105.05,22.13 107.03,24.79 109.02,27.45 110.91,30.98 112.80,34.50 114.31,38.89 115.81,43.28 116.63,48.47 117.44,53.65 117.19,59.46 116.95,65.27 115.31,71.42 113.67,77.57 110.39,83.61 107.11,89.66 102.11,95.07 97.10,100.48 90.50,104.66 83.89,108.83 76.05,111.22 68.20,113.60 59.71,113.75 51.22,113.90 42.84,111.61 34.45,109.32 27.01,104.64 19.57,99.97 13.86,93.28 8.15,86.60 4.77,78.53 1.39,70.46 0.67,61.82 -0.03,53.18 1.91,44.83 3.87,36.48 8.18,29.19 12.49,21.91 18.61,16.30 24.73,10.69 31.95,7.08 39.17,3.47 46.77,1.94 54.38,0.41 61.72,0.79 69.06,1.17 75.64,3.12 82.23,5.06 87.75,8.14 93.27,11.22 97.61,14.97 101.94,18.72 105.09,22.74 108.24,26.75 110.32,30.68 112.40,34.61 113.60,38.17 114.81,41.74 115.38,44.74 115.95,47.74 116.14,50.07 116.33,52.40 116.31,54.00 116.28,55.61 116.27,55.61 116.27,55.61 116.26,55.61 116.26,55.61 116.03,54.04 115.81,52.47 115.39,50.22 114.97,47.97 114.17,45.12 113.37,42.27 112.02,38.91 110.68,35.54 108.59,31.83 106.50,28.11 103.46,24.28 100.43,20.44 96.29,16.83 92.15,13.21 86.86,10.24 81.56,7.26 75.24,5.36 68.92,3.46 61.86,3.06 54.80,2.66 47.49,4.10 40.17,5.54 33.21,8.97 26.25,12.40 20.35,17.75 14.45,23.11 10.27,30.07 6.09,37.04 4.17,45.03 2.24,53.03 2.88,61.32 3.52,69.62 6.72,77.38 9.92,85.14 15.38,91.59 20.83,98.04 27.96,102.57 35.09,107.10 43.15,109.34 51.21,111.59 59.38,111.48 67.56,111.36 75.11,109.10 82.66,106.84 89.03,102.85 95.39,98.86 100.20,93.68 105.02,88.51 108.18,82.72 111.33,76.92 112.90,71.04 114.47,65.16 114.70,59.60 114.92,54.04 114.12,49.10 113.31,44.15 111.83,39.98 110.34,35.80 108.55,32.43 106.76,29.05 104.97,26.41 103.19,23.77 101.65,21.78 100.11,19.78 97.96,17.19 Z" fill="#1c7ed6" stroke="#1c7ed6" stroke-width="2" pointer-events="none" stroke-linecap="round" stroke-linejoin="round"/></g><g font-size="28" font-family="Caveat Brush" text-align="left" fill="#1c7ed6" transform-origin="top left" transform="translate(4.6200000000000045, 38.30)"><text y="18.2">component</text></g></g><g transform="translate(16, 381.79) rotate(0, 58.62, 57.30)"><g id="96d63004-f5c6-44ff-2f2f-39f5b64cd154_svg" class="tl-centered-g"><path d="M 112.97,79.30 Q 112.97,79.30 112.14,82.15 111.32,85.00 110.35,87.10 109.37,89.19 107.79,91.66 106.21,94.14 103.91,96.85 101.61,99.56 98.51,102.31 95.40,105.05 91.47,107.61 87.54,110.17 82.78,112.27 78.01,114.37 72.48,115.68 66.95,116.99 60.82,117.21 54.70,117.42 48.27,116.27 41.84,115.11 35.50,112.40 29.16,109.68 23.37,105.37 17.58,101.05 12.85,95.23 8.11,89.42 4.89,82.40 1.66,75.38 0.31,67.60 -1.03,59.82 -0.30,51.85 0.42,43.88 3.23,36.34 6.04,28.80 10.74,22.28 15.43,15.76 21.63,10.76 27.82,5.76 35.00,2.61 42.18,-0.53 49.76,-1.68 57.34,-2.84 64.75,-2.06 72.16,-1.28 78.91,1.19 85.66,3.66 91.39,7.49 97.11,11.32 101.60,16.07 106.08,20.81 109.27,26.06 112.45,31.30 114.40,36.64 116.35,41.99 117.22,47.12 118.10,52.24 118.10,56.92 118.10,61.59 117.46,65.65 116.83,69.71 115.81,73.07 114.79,76.43 113.63,79.08 112.47,81.73 111.38,83.69 110.28,85.66 109.37,86.98 108.46,88.30 108.46,88.30 108.45,88.30 108.45,88.30 108.44,88.29 109.12,86.86 109.80,85.42 110.67,83.39 111.54,81.36 112.46,78.70 113.37,76.04 114.17,72.74 114.96,69.44 115.45,65.52 115.94,61.60 115.90,57.11 115.85,52.62 115.02,47.69 114.19,42.76 112.34,37.62 110.49,32.48 107.45,27.43 104.41,22.38 100.11,17.79 95.82,13.21 90.34,9.51 84.85,5.81 78.38,3.40 71.90,0.98 64.78,0.20 57.66,-0.57 50.37,0.50 43.08,1.57 36.16,4.57 29.24,7.56 23.26,12.34 17.28,17.12 12.73,23.38 8.19,29.63 5.45,36.87 2.71,44.12 1.98,51.79 1.24,59.45 2.51,66.94 3.78,74.43 6.86,81.20 9.93,87.97 14.47,93.57 19.00,99.18 24.56,103.34 30.11,107.51 36.19,110.13 42.28,112.75 48.45,113.86 54.63,114.98 60.50,114.77 66.38,114.56 71.67,113.28 76.97,112.00 81.52,109.96 86.06,107.92 89.78,105.43 93.51,102.93 96.42,100.27 99.34,97.60 101.58,95.05 103.83,92.49 105.51,90.23 107.20,87.96 108.46,86.11 109.72,84.27 111.33,81.78 Z" fill="#4263eb" stroke="#4263eb" stroke-width="2" pointer-events="none" stroke-linecap="round" stroke-linejoin="round"/></g><g font-size="28" font-family="Caveat Brush" text-align="left" fill="#4263eb" transform-origin="top left" transform="translate(33.120000000000005, 38.30)"><text y="18.2">code</text></g></g><g transform="translate(131.31000000000006, 91.9) rotate(0, 120.54, 40.41)"><g id="17812793-f5eb-4897-1232-1fdb0c11ea62_svg" class="tl-centered-g"><defs><mask id="17812793-f5eb-4897-1232-1fdb0c11ea62_clip"><rect x="-100" y="-100" width="441.08" height="280.82" fill="white"/><rect x="57.54" y="21.40" width="126" height="38" rx="4" ry="4" fill="black" opacity="1"/></mask></defs><g pointer-events="none" opacity="1" mask="url(#17812793-f5eb-4897-1232-1fdb0c11ea62_clip)"><path d="M 0.31,-0.95 Q 0.31,-0.95 30.20,9.10 60.09,19.15 89.98,29.20 119.87,39.24 149.76,49.28 179.66,59.32 209.55,69.35 239.44,79.39 239.56,79.45 239.68,79.51 239.78,79.61 239.87,79.71 239.93,79.83 239.98,79.95 240.00,80.09 240.01,80.22 239.98,80.36 239.95,80.49 239.88,80.60 239.82,80.72 239.71,80.81 239.61,80.89 239.48,80.94 239.36,80.99 239.22,81.00 239.09,81.01 238.96,80.97 238.83,80.94 238.72,80.86 238.61,80.79 238.52,80.68 238.44,80.57 238.40,80.44 238.36,80.32 238.36,80.18 238.36,80.05 238.40,79.92 238.44,79.79 238.52,79.68 238.60,79.57 238.72,79.50 238.83,79.42 238.96,79.39 239.09,79.35 239.22,79.36 239.36,79.36 239.48,79.41 239.61,79.46 239.71,79.55 239.81,79.64 239.88,79.75 239.95,79.87 239.98,80.00 240.01,80.13 240.00,80.27 239.98,80.40 239.93,80.52 239.87,80.65 239.78,80.74 239.68,80.84 239.57,80.91 239.45,80.97 239.31,80.99 239.18,81.01 239.05,80.99 238.91,80.97 238.91,80.97 238.91,80.97 209.01,70.96 179.11,60.95 149.21,50.94 119.30,40.93 89.40,30.93 59.49,20.93 29.58,10.94 -0.31,0.95 -0.42,0.89 -0.53,0.84 -0.63,0.76 -0.72,0.69 -0.79,0.59 -0.86,0.49 -0.91,0.38 -0.96,0.27 -0.98,0.15 -1.00,0.03 -0.99,-0.08 -0.98,-0.20 -0.94,-0.31 -0.90,-0.43 -0.84,-0.53 -0.77,-0.63 -0.68,-0.71 -0.60,-0.80 -0.49,-0.86 -0.39,-0.92 -0.27,-0.95 -0.15,-0.98 -0.03,-0.99 0.08,-0.99 0.20,-0.97 Z" fill="#36b24d" stroke="#36b24d" stroke-width="2.11" stroke-dasharray="none" stroke-dashoffset="none" stroke-linecap="round" stroke-linejoin="round" pointer-events="stroke"/><g><path d="M 230.48,68.8305515061827 L 241.08,80.82 225.39,84.0007781159365" fill="none" stroke="#36b24d" stroke-width="4.23" stroke-linecap="round" stroke-linejoin="round" pointer-events="none"/></g></g></g><g font-size="28" font-family="Caveat Brush" text-align="left" fill="#36b24d" transform-origin="top left" transform="translate(57.540000000000006, 21.40)"><text y="18.2">log, load test</text></g></g><g transform="translate(101.44999999999999, 278.42) rotate(0, 138.65, 50.45)"><g id="f49e319d-030b-4188-0b04-5b9d3cb0a2e7_svg" class="tl-centered-g"><defs><mask id="f49e319d-030b-4188-0b04-5b9d3cb0a2e7_clip"><rect x="-100" y="-100" width="477.3" height="300.9" fill="white"/><rect x="-31.849999999999994" y="31.45" width="341" height="38" rx="4" ry="4" fill="black" opacity="1"/></mask></defs><g pointer-events="none" opacity="1" mask="url(#f49e319d-030b-4188-0b04-5b9d3cb0a2e7_clip)"><path d="M 277.62,0.88 Q 277.62,0.88 243.18,13.37 208.74,25.87 174.30,38.37 139.86,50.87 105.43,63.38 71.00,75.89 36.56,88.40 2.13,100.91 2.01,100.94 1.89,100.96 1.77,100.94 1.65,100.93 1.54,100.87 1.44,100.82 1.35,100.73 1.26,100.65 1.21,100.54 1.16,100.43 1.14,100.31 1.13,100.19 1.15,100.07 1.17,99.95 1.23,99.85 1.29,99.74 1.38,99.66 1.47,99.58 1.58,99.53 1.70,99.48 1.82,99.47 1.94,99.47 2.06,99.49 2.17,99.52 2.27,99.59 2.38,99.66 2.45,99.75 2.53,99.84 2.57,99.96 2.61,100.07 2.61,100.19 2.62,100.31 2.58,100.43 2.54,100.55 2.47,100.64 2.40,100.74 2.30,100.81 2.20,100.88 2.09,100.92 1.97,100.95 1.85,100.95 1.73,100.95 1.62,100.90 1.50,100.86 1.41,100.79 1.32,100.71 1.25,100.61 1.19,100.50 1.16,100.39 1.13,100.27 1.14,100.15 1.15,100.03 1.20,99.92 1.24,99.81 1.33,99.72 1.41,99.63 1.51,99.57 1.62,99.51 1.62,99.51 1.62,99.51 36.04,86.97 70.46,74.43 104.88,61.88 139.31,49.34 173.72,36.78 208.14,24.23 242.56,11.67 276.97,-0.88 277.08,-0.90 277.19,-0.93 277.31,-0.93 277.42,-0.93 277.53,-0.90 277.64,-0.87 277.74,-0.82 277.84,-0.76 277.92,-0.69 278.01,-0.61 278.07,-0.51 278.13,-0.42 278.17,-0.31 278.21,-0.21 278.22,-0.09 278.24,0.01 278.22,0.12 278.20,0.23 278.16,0.34 278.12,0.44 278.06,0.54 277.99,0.63 277.90,0.70 277.82,0.78 277.72,0.83 Z" fill="#36b24d" stroke="#36b24d" stroke-width="2.11" stroke-dasharray="none" stroke-dashoffset="none" stroke-linecap="round" stroke-linejoin="round" pointer-events="stroke"/><g><path d="M 15.75,103.67982326270867 L 0,100.9 10.28,88.64423696972335" fill="none" stroke="#36b24d" stroke-width="4.23" stroke-linecap="round" stroke-linejoin="round" pointer-events="none"/></g></g></g><g font-size="28" font-family="Caveat Brush" text-align="left" fill="#36b24d" transform-origin="top left" transform="translate(-31.849999999999994, 31.45)"><text y="18.2">code review, profile, microbenchmark</text></g></g></svg>